<svg width="130" height="62" viewBox="0 0 130 62" fill="none" xmlns="http://www.w3.org/2000/svg">
<circle cx="31" cy="31" r="31" fill="white"/>
<rect width="39.0191" height="25.8333" transform="translate(13.0693 17.5093)" fill="white"/>
<path fill-rule="evenodd" clip-rule="evenodd" d="M28.7116 29.6616C28.7116 29.6616 31.2086 28.2301 31.0088 24.0342C30.809 19.8383 26.5782 17.5093 23.2676 17.5093H13.0693V42.778H23.2676C23.2676 42.778 25.947 43.0177 28.3467 41.6128C30.2111 40.5196 31.9423 38.1267 31.909 35.8203C31.8464 30.7269 28.7116 29.6616 28.7116 29.6616ZM23.2676 22.9915C23.2676 22.9915 25.1879 23.102 25.1493 25.0675C25.1493 27.4804 23.2663 27.3872 23.2663 27.3872H18.8716V22.9928L23.2676 22.9915ZM18.8729 37.2944H23.2675V37.2958C23.3105 37.2958 23.3638 37.2977 23.4257 37.3C24.1517 37.3269 26.0482 37.3972 26.0482 34.8203C26.0149 32.1917 23.2675 32.5406 23.2675 32.5406H18.8729V37.2944Z" fill="#E02B59"/>
<path fill-rule="evenodd" clip-rule="evenodd" d="M41.2631 24.3684C44.0596 24.0688 47.6553 24.3684 50.2854 27.9305C52.9155 31.4912 51.8222 35.9521 51.8222 35.9521H39.0657C39.0657 35.9521 39.5092 37.895 42.439 38.3384C44.0174 38.5964 45.627 38.1159 46.8056 37.0347L51.1843 39.5475C47.4888 44.8407 40.464 43.0097 40.464 43.0097C38.7994 42.5436 36.6687 41.7114 34.771 39.0814C32.8733 36.4515 32.9678 32.0891 34.2716 29.3607C35.5753 26.6322 38.4665 24.668 41.2631 24.3684ZM42.8225 29.1063C39.3374 29.1063 38.9046 31.9626 38.9046 31.9626H46.7071C46.7071 31.9626 46.1291 29.1063 42.8225 29.1063Z" fill="#E02B59"/>
<path fill-rule="evenodd" clip-rule="evenodd" d="M80.2869 43.7645C86.0254 43.7645 90.6105 39.2919 90.6105 33.4972C90.6105 27.7025 86.0254 23.2299 80.2869 23.2299C74.5485 23.2299 69.9634 27.7025 69.9634 33.4972C69.9634 39.2919 74.5485 43.7645 80.2869 43.7645ZM80.287 38.8418C77.2771 38.8418 74.9705 36.6477 74.9705 33.4972C74.9705 30.3466 77.2771 28.1525 80.287 28.1525C83.2969 28.1525 85.6035 30.3466 85.6035 33.4972C85.6035 36.6477 83.2969 38.8418 80.287 38.8418ZM96.6429 35.8601V43.3426H91.9734V29.2777H96.6429V30.6842C97.4305 29.559 98.8089 28.8839 100.553 28.8839C103.45 28.8839 105.729 30.8811 105.729 34.9318V43.3426H101.059V35.5225C101.059 34.0035 100.159 33.3003 98.9495 33.3003C97.5149 33.3003 96.6429 34.1723 96.6429 35.8601ZM114.659 43.7364C117.162 43.7364 119.3 42.8925 120.706 41.1203L117.331 38.7574C116.656 39.4044 115.784 39.742 114.771 39.742C113.421 39.742 112.183 39.3763 111.621 38.0261H121.325C121.466 37.4353 121.522 36.8727 121.522 36.282C121.522 32.0626 118.484 28.8839 114.265 28.8839C109.876 28.8839 106.782 32.1188 106.782 36.3383C106.782 40.5015 109.792 43.7364 114.659 43.7364ZM111.564 34.7912H116.965C116.543 33.3284 115.446 32.8221 114.321 32.8221C112.971 32.8221 111.958 33.4972 111.564 34.7912Z" fill="white"/>
</svg>
