<svg width="23" height="23" viewBox="0 0 23 23" fill="none" xmlns="http://www.w3.org/2000/svg">
<path d="M22.5334 14.1646C21.0565 20.0655 15.0563 23.6567 9.13137 22.1852C3.20896 20.7141 -0.396394 14.737 1.08118 8.8366C2.55746 2.93504 8.55771 -0.656411 14.4808 0.814712C20.4052 2.28583 24.0104 8.26352 22.5333 14.1647L22.5334 14.1646H22.5334Z" fill="#F7931A"/>
<path fill-rule="evenodd" clip-rule="evenodd" d="M16.9945 9.74031C17.2202 8.29901 16.0714 7.52425 14.5005 7.00741L15.0101 5.05504L13.7658 4.7589L13.2698 6.65987C12.9426 6.58195 12.6067 6.50852 12.2729 6.43573L12.7726 4.52221L11.5291 4.22607L11.0192 6.17781C10.7485 6.11895 10.4827 6.06077 10.2247 5.99946L10.2262 5.99332L8.51033 5.58405L8.17934 6.85342C8.17934 6.85342 9.10246 7.05553 9.08301 7.06798C9.58686 7.18809 9.67797 7.50668 9.66284 7.75919L9.08235 9.98341C9.11704 9.99182 9.16204 10.004 9.2117 10.0231L9.17558 10.0144C9.14487 10.0071 9.11295 9.99948 9.08018 9.99198L8.26652 13.1078C8.20495 13.254 8.04866 13.4734 7.69639 13.3901C7.70886 13.4074 6.79206 13.1745 6.79206 13.1745L6.17432 14.535L7.79349 14.9205C7.97079 14.963 8.14599 15.0066 8.31941 15.0498L8.31946 15.0498C8.44066 15.08 8.56101 15.1099 8.68059 15.1391L8.16571 17.1139L9.40851 17.4101L9.9184 15.4562C10.2579 15.5443 10.5874 15.6255 10.91 15.702L10.4018 17.6466L11.6461 17.9428L12.1609 15.9717C14.2826 16.3553 15.8779 16.2006 16.5494 14.3676C17.0905 12.8917 16.5225 12.0405 15.4063 11.4854C16.2193 11.3063 16.8317 10.7955 16.9949 9.74047L16.9945 9.74021L16.9945 9.74031ZM14.1517 13.548C13.7989 14.902 11.58 14.3422 10.5648 14.0861L10.5647 14.0861C10.4734 14.063 10.3919 14.0425 10.3223 14.026L11.0056 11.4097C11.0904 11.43 11.1941 11.4522 11.3115 11.4774C12.3616 11.7025 14.5131 12.1637 14.1518 13.548H14.1517ZM11.5222 10.2631C12.3685 10.4789 14.2149 10.9496 14.5365 9.71893H14.5366C14.865 8.4603 13.0706 8.08083 12.1942 7.8955C12.0956 7.87465 12.0086 7.85625 11.9376 7.83934L11.3182 10.2121C11.3766 10.226 11.4453 10.2435 11.5222 10.2631Z" fill="white"/>
</svg>
