<svg width="23" height="23" viewBox="0 0 23 23" fill="none" xmlns="http://www.w3.org/2000/svg">
<ellipse cx="11.8071" cy="11.5" rx="11.0571" ry="11.0149" fill="#0052B4"/>
<path d="M11.9372 4.89111L12.297 5.99423H13.4613L12.5193 6.67597L12.8792 7.77908L11.9372 7.09729L10.9952 7.77908L11.355 6.67597L10.4131 5.99423H11.5774L11.9372 4.89111Z" fill="#FFDA44"/>
<path d="M7.154 6.86471L8.19149 7.39125L9.01476 6.57117L8.83257 7.7167L9.87003 8.24328L8.72005 8.42474L8.53791 9.57036L8.0093 8.53687L6.85938 8.71836L7.68264 7.89824L7.154 6.86471Z" fill="#FFDA44"/>
<path d="M5.17285 11.6296L6.28019 11.2712V10.1113L6.96451 11.0497L8.0719 10.6913L7.38745 11.6296L8.0719 12.568L6.96451 12.2096L6.28019 13.1479V11.9881L5.17285 11.6296Z" fill="#FFDA44"/>
<path d="M7.154 16.3944L7.6826 15.3609L6.85938 14.5408L8.00935 14.7223L8.53786 13.6888L8.72005 14.8344L9.86998 15.0159L8.83266 15.5425L9.01476 16.688L8.19149 15.8679L7.154 16.3944Z" fill="#FFDA44"/>
<path d="M11.9372 18.3681L11.5773 17.265H10.4131L11.3551 16.5832L10.9952 15.4802L11.9372 16.1619L12.8792 15.4802L12.5193 16.5832L13.4613 17.265H12.297L11.9372 18.3681Z" fill="#FFDA44"/>
<path d="M16.7203 16.3944L15.6829 15.8679L14.8596 16.688L15.0418 15.5424L14.0044 15.0159L15.1543 14.8344L15.3365 13.6888L15.865 14.7223L17.015 14.5408L16.1917 15.361L16.7203 16.3944Z" fill="#FFDA44"/>
<path d="M18.7017 11.6296L17.5943 11.9881V13.1479L16.91 12.2095L15.8027 12.568L16.4871 11.6296L15.8027 10.6913L16.91 11.0497L17.5943 10.1113V11.2712L18.7017 11.6296Z" fill="#FFDA44"/>
<path d="M16.7203 6.86479L16.1917 7.89832L17.015 8.71844L15.865 8.5369L15.3365 9.57039L15.1543 8.42481L14.0044 8.24332L15.0418 7.71678L14.8596 6.57129L15.6829 7.39137L16.7203 6.86479Z" fill="#FFDA44"/>
</svg>
