<svg width="40" height="40" viewBox="0 0 40 40" fill="none" xmlns="http://www.w3.org/2000/svg">
<path fill-rule="evenodd" clip-rule="evenodd" d="M19.7805 38.811V38.811C9.27051 38.811 0.749512 30.291 0.749512 19.781V19.78C0.749512 9.27 9.27051 0.75 19.7805 0.75V0.75C30.2905 0.75 38.8105 9.27 38.8105 19.78V19.781C38.8105 30.291 30.2905 38.811 19.7805 38.811Z" stroke="#222221" stroke-width="1.5"/>
<mask id="mask0_0_2122" style="mask-type:alpha" maskUnits="userSpaceOnUse" x="0" y="0" width="40" height="40">
<path fill-rule="evenodd" clip-rule="evenodd" d="M0 39.561H39.561V0H0V39.561Z" fill="white"/>
</mask>
<g mask="url(#mask0_0_2122)">
<path fill-rule="evenodd" clip-rule="evenodd" d="M11.1509 28.2621H15.0899V15.5381H11.1509V28.2621Z" fill="#222221"/>
<path fill-rule="evenodd" clip-rule="evenodd" d="M13.1015 13.8723C14.3875 13.8723 15.4305 12.8203 15.4305 11.5243C15.4305 10.2273 14.3875 9.17627 13.1015 9.17627C11.8145 9.17627 10.7725 10.2273 10.7725 11.5243C10.7725 12.8203 11.8145 13.8723 13.1015 13.8723" fill="#222221"/>
<path fill-rule="evenodd" clip-rule="evenodd" d="M21.3857 21.5829C21.3857 19.7939 22.2087 18.7289 23.7857 18.7289C25.2337 18.7289 25.9297 19.7519 25.9297 21.5829V28.2619H29.8497V20.2059C29.8497 16.7979 27.9177 15.1499 25.2197 15.1499C22.5207 15.1499 21.3857 17.2519 21.3857 17.2519V15.5379H17.6077V28.2619H21.3857V21.5829Z" fill="#222221"/>
</g>
</svg>
