<svg width="40" height="40" viewBox="0 0 40 40" fill="none" xmlns="http://www.w3.org/2000/svg">
<path fill-rule="evenodd" clip-rule="evenodd" d="M20.031 39.061V39.061C9.521 39.061 1 30.541 1 20.031V20.03C1 9.52 9.521 1 20.031 1C30.541 1 39.062 9.52 39.062 20.03V20.031C39.062 30.541 30.541 39.061 20.031 39.061Z" stroke="#222221" stroke-width="1.5"/>
<path fill-rule="evenodd" clip-rule="evenodd" d="M9.89148 26.4013C11.7325 27.5823 13.9195 28.2703 16.2685 28.2703C23.9935 28.2703 28.3575 21.7463 28.0945 15.8943C28.9075 15.3083 29.6125 14.5753 30.1705 13.7403C29.4245 14.0713 28.6225 14.2953 27.7815 14.3953C28.6395 13.8813 29.2995 13.0663 29.6095 12.0943C28.8065 12.5703 27.9155 12.9173 26.9685 13.1043C26.2095 12.2953 25.1285 11.7903 23.9315 11.7903C21.2465 11.7903 19.2725 14.2963 19.8785 16.8983C16.4205 16.7253 13.3555 15.0693 11.3035 12.5513C10.2135 14.4223 10.7385 16.8683 12.5915 18.1063C11.9085 18.0853 11.2665 17.8973 10.7055 17.5853C10.6615 19.5133 12.0425 21.3163 14.0435 21.7183C13.4575 21.8773 12.8155 21.9133 12.1645 21.7893C12.6935 23.4423 14.2305 24.6443 16.0515 24.6783C14.3025 26.0503 12.0985 26.6623 9.89148 26.4013" fill="#222221"/>
</svg>
