<svg width="40" height="40" viewBox="0 0 40 40" fill="none" xmlns="http://www.w3.org/2000/svg">
<path fill-rule="evenodd" clip-rule="evenodd" d="M20.03 39.061V39.061C9.52 39.061 1 30.541 1 20.031V20.03C1 9.52 9.52 1 20.03 1C30.54 1 39.061 9.52 39.061 20.03V20.031C39.061 30.541 30.54 39.061 20.03 39.061Z" stroke="#222221" stroke-width="1.5"/>
<path fill-rule="evenodd" clip-rule="evenodd" d="M16.9148 24.5598V15.5018L24.8758 20.0308L16.9148 24.5598ZM34.6238 12.6508C34.2738 11.3318 33.2418 10.2928 31.9308 9.9408C29.5558 9.2998 20.0298 9.2998 20.0298 9.2998C20.0298 9.2998 10.5048 9.2998 8.1288 9.9408C6.8188 10.2928 5.7868 11.3318 5.4358 12.6508C4.7998 15.0418 4.7998 20.0308 4.7998 20.0308C4.7998 20.0308 4.7998 25.0188 5.4358 27.4098C5.7868 28.7288 6.8188 29.7678 8.1288 30.1208C10.5048 30.7618 20.0298 30.7618 20.0298 30.7618C20.0298 30.7618 29.5558 30.7618 31.9308 30.1208C33.2418 29.7678 34.2738 28.7288 34.6238 27.4098C35.2608 25.0188 35.2608 20.0308 35.2608 20.0308C35.2608 20.0308 35.2608 15.0418 34.6238 12.6508V12.6508Z" fill="#222221"/>
</svg>
