<svg width="32" height="32" viewBox="0 0 32 32" fill="none" xmlns="http://www.w3.org/2000/svg">
<circle cx="16" cy="16" r="16" fill="url(#paint0_linear_206_1476)"/>
<path d="M22.5221 22.1882L17.1284 9.45041C16.8242 8.79184 16.372 8.47058 15.7759 8.47058H15.2991C14.703 8.47058 14.2508 8.79184 13.9465 9.45041L11.5992 15.0001H9.82322C9.2929 15.0041 8.86125 15.4217 8.85714 15.9438V15.9558C8.86125 16.4738 9.2929 16.8955 9.82322 16.8995H10.777L8.53648 22.1882C8.49537 22.3046 8.4707 22.4251 8.4707 22.5496C8.4707 22.8467 8.56526 23.0796 8.73381 23.2604C8.90236 23.4411 9.14491 23.5294 9.44912 23.5294C9.65056 23.5254 9.84377 23.4652 10.0041 23.3487C10.1768 23.2322 10.296 23.0636 10.3905 22.8708L12.8571 16.8955H14.5673C15.0976 16.8915 15.5293 16.4738 15.5334 15.9518V15.9277C15.5293 15.4097 15.0976 14.988 14.5673 14.984H13.6547L15.5375 10.4021L20.668 22.8668C20.7626 23.0596 20.8818 23.2282 21.0544 23.3447C21.2148 23.4611 21.4121 23.5214 21.6094 23.5254C21.9136 23.5254 22.1521 23.437 22.3247 23.2563C22.4974 23.0756 22.5878 22.8427 22.5878 22.5456C22.592 22.4251 22.5714 22.3006 22.5221 22.1882Z" fill="white"/>
<defs>
<linearGradient id="paint0_linear_206_1476" x1="17.9134" y1="-5.94167" x2="-5.89463" y2="14.0903" gradientUnits="userSpaceOnUse">
<stop stop-color="#B6509E"/>
<stop offset="1" stop-color="#2EBAC6"/>
</linearGradient>
</defs>
</svg>
