<svg width="32" height="30" viewBox="0 0 32 30" fill="none" xmlns="http://www.w3.org/2000/svg">
<path d="M8.77263 14.6779C8.70437 15.864 9.6174 16.8794 10.8035 16.9477C10.8461 16.9477 10.8888 16.9477 10.9315 16.9477C12.1261 16.9477 13.0903 15.9835 13.0818 14.7888C13.0818 13.5942 12.1176 12.63 10.9229 12.6385C9.77952 12.6385 8.83237 13.5345 8.77263 14.6779Z" fill="#0033AD"/>
<path d="M0.73455 14.1233C0.350567 14.0977 0.0177816 14.3964 0.000715719 14.7803C-0.0163502 15.1643 0.27377 15.4971 0.657753 15.5142C1.04174 15.5398 1.36599 15.2411 1.39159 14.8571C1.41719 14.4731 1.11853 14.1489 0.73455 14.1233Z" fill="#0033AD"/>
<path d="M8.63612 2.16865C8.97744 1.99799 9.11396 1.57134 8.94331 1.23002C8.77265 0.888704 8.346 0.752177 8.00468 0.922836C7.66336 1.0935 7.52684 1.51161 7.69749 1.85293C7.86815 2.20278 8.28627 2.34784 8.63612 2.16865C8.63612 2.16865 8.62759 2.16865 8.63612 2.16865Z" fill="#0033AD"/>
<path d="M10.8207 5.98285C11.3498 5.71832 11.5631 5.06982 11.2986 4.54078C11.0341 4.01173 10.3856 3.79841 9.85651 4.06293C9.32747 4.32745 9.11414 4.97596 9.37867 5.505C9.64319 6.03404 10.2917 6.24737 10.8207 5.98285Z" fill="#0033AD"/>
<path d="M3.4651 8.60249C3.87468 8.86701 4.42079 8.75608 4.69384 8.3465C4.95836 7.93692 4.84743 7.39081 4.43785 7.11775C4.02827 6.85323 3.48216 6.96416 3.20911 7.37374C2.93605 7.78333 3.05551 8.33797 3.4651 8.60249Z" fill="#0033AD"/>
<path d="M4.77048 13.7393C4.17318 13.7052 3.66973 14.1574 3.6356 14.7547C3.60147 15.352 4.05372 15.8555 4.65102 15.8896C5.24833 15.9237 5.75177 15.4715 5.7859 14.8742C5.82004 14.2854 5.36779 13.7734 4.77048 13.7393Z" fill="#0033AD"/>
<path d="M3.58457 20.9667C3.14939 21.1886 2.9702 21.7176 3.19205 22.1613C3.41391 22.5965 3.94295 22.7757 4.38667 22.5538C4.82185 22.332 5.00104 21.8029 4.77918 21.3592C4.55733 20.924 4.01975 20.7449 3.58457 20.9667Z" fill="#0033AD"/>
<path d="M7.76584 11.5122C8.35461 11.8962 9.13965 11.7341 9.5151 11.1453C9.89908 10.5565 9.73695 9.77151 9.14818 9.39606C8.55941 9.01207 7.77437 9.1742 7.39892 9.76297C7.01494 10.3432 7.17707 11.1282 7.76584 11.5122Z" fill="#0033AD"/>
<path d="M21.0344 5.89753C21.5293 6.22179 22.2034 6.08526 22.5277 5.59035C22.8519 5.09544 22.7154 4.42133 22.2205 4.09708C21.7256 3.77283 21.0515 3.90936 20.7272 4.40427C20.3945 4.90771 20.531 5.57328 21.0344 5.89753Z" fill="#0033AD"/>
<path d="M23.2358 2.10039C23.56 2.31371 23.9867 2.21985 24.2 1.89559C24.4133 1.57134 24.3195 1.14469 23.9952 0.931371C23.671 0.718047 23.2443 0.81191 23.031 1.12763C22.8262 1.45188 22.9201 1.88706 23.2358 2.10039Z" fill="#0033AD"/>
<path d="M21.1967 12.6215C20.0106 12.5532 18.9867 13.4663 18.9269 14.6524C18.8587 15.8384 19.7717 16.8624 20.9578 16.9221C21.0004 16.9221 21.0431 16.9221 21.0772 16.9221C22.2633 16.9221 23.2275 15.9579 23.2275 14.7633C23.2361 13.6284 22.3401 12.6812 21.1967 12.6215Z" fill="#0033AD"/>
<path d="M11.5287 11.3586C11.8957 12.0839 12.638 12.5447 13.4572 12.5447C14.6433 12.5447 15.6075 11.5804 15.6075 10.3858C15.6075 10.0531 15.5307 9.72027 15.3771 9.41308C14.8395 8.34646 13.5425 7.91981 12.4844 8.45739C11.4178 9.0035 10.9912 10.3005 11.5287 11.3586Z" fill="#0033AD"/>
<path d="M28.4154 8.60245C28.8506 8.38059 29.0212 7.84302 28.7994 7.40784C28.5775 6.97266 28.0399 6.802 27.6047 7.02385C27.1696 7.24571 26.9989 7.77475 27.2122 8.20993C27.4426 8.64511 27.9717 8.82431 28.4154 8.60245Z" fill="#0033AD"/>
<path d="M22.9545 9.28513C22.3316 9.60085 22.0756 10.3603 22.3913 10.9832C22.707 11.6061 23.4664 11.8621 24.0893 11.5464C24.7123 11.2306 24.9682 10.4712 24.6525 9.8483C24.3368 9.2254 23.5774 8.97794 22.9545 9.28513Z" fill="#0033AD"/>
<path d="M15.9146 1.77612C16.401 1.80171 16.8191 1.42626 16.8532 0.939886C16.8874 0.453508 16.5034 0.0353936 16.017 0.00126175C15.5306 -0.0243371 15.1125 0.34258 15.0784 0.828958C15.0528 1.32387 15.4282 1.74198 15.9146 1.77612Z" fill="#0033AD"/>
<path d="M15.9061 7.34813C16.6058 7.3908 17.2031 6.85322 17.2373 6.15352C17.2799 5.45382 16.7424 4.85651 16.0427 4.82238C15.343 4.77972 14.7457 5.31729 14.7115 6.01699C14.6774 6.7167 15.2064 7.314 15.9061 7.34813Z" fill="#0033AD"/>
<path d="M9.0454 20.2841C9.66831 19.9684 9.9243 19.209 9.60858 18.5861C9.29286 17.9632 8.53343 17.7072 7.91052 18.0229C7.28761 18.3386 7.03163 19.098 7.34735 19.7209C7.66306 20.3438 8.4225 20.5998 9.0454 20.2841Z" fill="#0033AD"/>
<path d="M16.7254 9.19981C16.0769 10.1982 16.3499 11.5293 17.3483 12.1778C18.3466 12.8263 19.6778 12.5533 20.3263 11.5549C20.9748 10.5565 20.7017 9.22541 19.7034 8.5769C19.3535 8.34651 18.9439 8.22705 18.5258 8.22705C17.8005 8.22705 17.1264 8.59397 16.7254 9.19981Z" fill="#0033AD"/>
<path d="M20.4713 18.2106C19.9338 17.1439 18.6368 16.7173 17.5787 17.2549C16.512 17.7925 16.0854 19.0895 16.623 20.1475C17.1606 21.2142 18.4576 21.6408 19.5156 21.1032C20.5737 20.5742 21.0089 19.2943 20.4799 18.2276C20.4799 18.2191 20.4799 18.2191 20.4713 18.2106Z" fill="#0033AD"/>
<path d="M24.2341 18.057C23.6453 17.673 22.8603 17.8351 22.4849 18.4239C22.1009 19.0127 22.263 19.7977 22.8518 20.1732C23.4406 20.5572 24.2256 20.395 24.601 19.8063C24.985 19.226 24.8229 18.441 24.2341 18.057Z" fill="#0033AD"/>
<path d="M28.364 14.823C28.3982 14.2257 27.9459 13.7222 27.3486 13.6881C26.7513 13.654 26.2479 14.1062 26.2137 14.7035C26.1796 15.3008 26.6318 15.8043 27.2291 15.8384C27.8179 15.8725 28.3299 15.4117 28.364 14.823Z" fill="#0033AD"/>
<path d="M31.3425 14.0551C30.9585 14.0295 30.6257 14.3281 30.6086 14.7121C30.5916 15.0961 30.8817 15.4289 31.2657 15.4459C31.6496 15.4715 31.9739 15.1729 31.9995 14.7889C32.0166 14.4049 31.7264 14.0807 31.3425 14.0551Z" fill="#0033AD"/>
<path d="M28.5347 20.9667C28.1251 20.7022 27.579 20.8131 27.3059 21.2227C27.0414 21.6323 27.1523 22.1784 27.5619 22.4514C27.9715 22.7159 28.5176 22.605 28.7907 22.1954C29.0637 21.7859 28.9443 21.2312 28.5347 20.9667Z" fill="#0033AD"/>
<path d="M8.75546 27.4688C8.43121 27.2555 8.00456 27.3494 7.79123 27.6651C7.57791 27.9894 7.67177 28.416 7.98749 28.6293C8.31174 28.8427 8.73839 28.7488 8.95172 28.4331C9.17357 28.1174 9.07971 27.6822 8.75546 27.4688Z" fill="#0033AD"/>
<path d="M23.3641 27.4006C23.0227 27.5712 22.8862 27.9979 23.0569 28.3392C23.2275 28.6805 23.6542 28.817 23.9955 28.6464C24.3368 28.4757 24.4733 28.0576 24.3027 27.7163C24.132 27.3664 23.7139 27.2214 23.3641 27.4006C23.3641 27.4006 23.3726 27.4006 23.3641 27.4006Z" fill="#0033AD"/>
<path d="M15.2746 20.3694C15.9231 19.3711 15.65 18.0399 14.6517 17.3829C13.6533 16.7344 12.3222 17.0074 11.6652 18.0058C11.0081 19.0042 11.2897 20.3353 12.2881 20.9923C12.6379 21.2227 13.0475 21.3422 13.4656 21.3422C14.1994 21.3507 14.8735 20.9838 15.2746 20.3694Z" fill="#0033AD"/>
<path d="M10.9655 23.6717C10.4706 23.3474 9.79652 23.4839 9.47226 23.9789C9.14801 24.4738 9.28454 25.1479 9.77945 25.4721C10.2744 25.7964 10.9485 25.6598 11.2727 25.1649C11.6055 24.67 11.469 23.9959 10.9655 23.6717Z" fill="#0033AD"/>
<path d="M15.9915 27.7931C15.5051 27.7675 15.087 28.143 15.0529 28.6293C15.0188 29.1157 15.4027 29.5338 15.8891 29.568C16.3755 29.5936 16.7936 29.2266 16.8277 28.7403C16.8533 28.2454 16.4779 27.8272 15.9915 27.7931Z" fill="#0033AD"/>
<path d="M16 22.2211C15.3003 22.1784 14.703 22.716 14.6689 23.4157C14.6262 24.1154 15.1638 24.7127 15.8635 24.7468C16.5632 24.7809 17.1605 24.2519 17.1946 23.5522C17.2373 22.861 16.6997 22.2552 16 22.2211Z" fill="#0033AD"/>
<path d="M21.1797 23.5863C20.6506 23.8594 20.4373 24.5079 20.7104 25.0369C20.9834 25.566 21.6319 25.7793 22.161 25.5062C22.69 25.2417 22.9033 24.5932 22.6388 24.0642C22.3658 23.5351 21.7173 23.3133 21.1797 23.5863Z" fill="#0033AD"/>
</svg>
