<svg width="32" height="32" viewBox="0 0 32 32" fill="none" xmlns="http://www.w3.org/2000/svg">
<path d="M31.5211 19.8706C29.3839 28.442 20.7014 33.6585 12.128 31.521C3.55811 29.384 -1.65895 20.7021 0.479281 12.1312C2.61551 3.55876 11.2979 -1.65819 19.8688 0.478793C28.4418 2.61577 33.6583 11.2987 31.5211 19.8706Z" fill="#5DCB79"/>
<path fill-rule="evenodd" clip-rule="evenodd" d="M20.8819 10.3002C19.9363 8.35708 18.0161 8.26482 15.8409 8.80644L14.7864 6.02139L13.1576 6.58968L14.1843 9.30131C13.7561 9.45072 13.3217 9.61219 12.8902 9.7729L11.8571 7.04319L10.229 7.61095L11.2825 10.3954C10.9326 10.5259 10.5889 10.6535 10.2513 10.7716L10.2478 10.763L8.00081 11.5458L8.68669 13.3562C8.68669 13.3562 9.88054 12.9128 9.86928 12.9428C10.5292 12.7129 10.8948 13.0367 11.0875 13.3589L12.2888 16.5316C12.3344 16.516 12.3946 16.4972 12.4654 16.4834L12.4103 16.5026C12.3724 16.5157 12.3332 16.5293 12.2935 16.5436L13.9757 20.9885C14.0286 21.2147 14.037 21.6018 13.5763 21.7634C13.6044 21.7754 12.3921 22.1761 12.3921 22.1761L12.8349 24.3135L14.9547 23.5741C15.1916 23.4918 15.4271 23.4127 15.6602 23.3343C15.8154 23.2822 15.9694 23.2304 16.1221 23.1783L17.1892 25.9948L18.8164 25.4276L17.7613 22.6406C18.2117 22.4944 18.6455 22.3473 19.0674 22.1996L20.117 24.9741L21.7458 24.4058L20.6818 21.5938C23.3585 20.4752 25.0034 19.0887 24.2282 16.3292C23.6045 14.1071 22.2663 13.4853 20.5647 13.6389C21.3196 12.8091 21.5762 11.7213 20.8819 10.3002ZM20.8831 17.118C21.6151 19.0489 18.6841 20.0235 17.343 20.4694C17.2224 20.5095 17.1146 20.5454 17.0235 20.5773L15.611 16.845C15.722 16.8064 15.8555 16.756 16.0068 16.699L16.0069 16.699C17.3608 16.1888 20.1356 15.1431 20.8831 17.118ZM15.2335 15.0466C16.3534 14.6775 18.7963 13.8725 18.1322 12.1168C17.4522 10.3213 15.1427 11.1997 14.0147 11.6287C13.8878 11.6769 13.7759 11.7195 13.6829 11.7519L14.9642 15.1368C15.0408 15.11 15.1317 15.0801 15.2335 15.0466Z" fill="white"/>
</svg>
