<svg width="32" height="32" viewBox="0 0 32 32" fill="none" xmlns="http://www.w3.org/2000/svg">
<ellipse cx="15.85" cy="16" rx="15.85" ry="15.6062" fill="#F5B300"/>
<path fill-rule="evenodd" clip-rule="evenodd" d="M11.5502 8.02462L11.562 8.02778C11.5057 8.06847 11.5167 8.05757 11.5502 8.02462ZM11.6648 8.05472L11.7002 7.92616C11.6341 7.97499 11.5898 8.00768 11.562 8.02778C11.5963 8.03694 11.6305 8.04591 11.6648 8.05472ZM11.6648 8.05472C11.6016 8.28593 11.5384 8.5245 11.4752 8.76308C11.4002 9.04616 11.3252 9.32923 11.2502 9.6C11.2002 9.69846 11.2502 9.7477 11.3502 9.7477C11.4286 9.767 11.509 9.78631 11.5909 9.80599L11.591 9.80601C11.9267 9.88668 12.2885 9.97359 12.6502 10.0923C13.1002 10.24 13.3502 10.6831 13.2502 11.0769C12.6502 13.6369 12.0002 16.1477 11.3502 18.6585C11.3002 19.0031 11.0002 19.2 10.6002 19.1015C10.2502 19.0523 9.8502 18.9538 9.5002 18.8554C9.3502 18.8554 9.3002 18.8554 9.2502 19.0031C9.1002 19.3969 8.9002 19.84 8.7002 20.2831C8.6502 20.3815 8.6127 20.4677 8.5752 20.5538C8.5377 20.64 8.5002 20.7262 8.4502 20.8246C9.6502 21.12 10.8002 21.4154 11.9502 21.7108C11.9502 21.7684 11.933 21.8092 11.9188 21.843C11.9088 21.8669 11.9002 21.8873 11.9002 21.9077C11.6502 22.6954 11.4502 23.5323 11.2502 24.3692C11.2002 24.4677 11.2002 24.5169 11.3502 24.5662C11.8502 24.6646 12.3502 24.7631 12.8502 24.9108C12.9823 24.9541 12.9981 24.9211 13.0341 24.8453C13.039 24.835 13.0442 24.824 13.0502 24.8123C13.1002 24.5908 13.1627 24.3692 13.2252 24.1477C13.2877 23.9262 13.3502 23.7046 13.4002 23.4831C13.4502 23.2615 13.5127 23.04 13.5752 22.8185C13.6377 22.5969 13.7002 22.3754 13.7502 22.1538C14.2001 22.2523 14.6001 22.3507 15 22.4492L15.0002 22.4492C15.0723 22.4847 15.0664 22.5202 15.0575 22.5741C15.0541 22.595 15.0502 22.6187 15.0502 22.6462C14.8002 23.4338 14.6002 24.2708 14.4002 25.1077C14.3502 25.2062 14.3502 25.2554 14.5002 25.3046C14.7252 25.3538 14.9627 25.4154 15.2002 25.4769L15.2003 25.477C15.4378 25.5385 15.6752 25.6 15.9002 25.6492C16.1394 25.7435 16.1497 25.7024 16.194 25.5262L16.2002 25.5015C16.3002 25.1077 16.4002 24.7015 16.5002 24.2954C16.6002 23.8892 16.7002 23.4831 16.8002 23.0892C16.8502 22.9415 16.9502 22.8923 17.1002 22.9415C18.1002 23.0892 19.1002 23.1877 20.1502 23.04C20.9502 22.9415 21.6502 22.5969 22.2002 21.9569C22.6502 21.4154 22.9002 20.8246 23.1002 20.1354C23.2502 19.5938 23.3002 19.0031 23.2002 18.4615C23.0002 17.7723 22.6002 17.2308 22.0002 16.7877C21.9002 16.7138 21.8002 16.6523 21.7002 16.5908C21.6002 16.5292 21.5002 16.4677 21.4002 16.3938C21.4588 16.3938 21.5002 16.377 21.5345 16.363C21.5588 16.3531 21.5795 16.3446 21.6002 16.3446C22.0002 16.1969 22.4002 16 22.7002 15.7046C23.1002 15.3108 23.3002 14.8185 23.4502 14.2769C23.6502 13.4892 23.6002 12.7015 23.1502 11.9631C22.8002 11.4708 22.3502 11.0769 21.8502 10.7815L20.2002 10.0431C20.0502 9.99385 20.0002 9.94462 20.0502 9.79693C20.1502 9.55077 20.2002 9.30462 20.2502 9.05846C20.4002 8.4677 20.5502 7.87693 20.7002 7.23693C20.6752 7.23693 20.6627 7.22462 20.6502 7.21231C20.6377 7.2 20.6252 7.1877 20.6002 7.1877C20.3632 7.12407 20.1356 7.06958 19.9132 7.01635L19.9132 7.01635C19.6194 6.94603 19.3348 6.87791 19.0502 6.79385C18.9502 6.74462 18.9002 6.79385 18.9002 6.89231L18.7502 7.48308C18.5502 8.12308 18.4002 8.71385 18.2502 9.35385C18.2335 9.37026 18.2169 9.39214 18.2002 9.41402C18.1669 9.45778 18.1335 9.50154 18.1002 9.50154C17.9002 9.45231 17.6877 9.40308 17.4752 9.35385L17.4751 9.35383C17.2627 9.30461 17.0502 9.25538 16.8502 9.20616C16.9002 9.1077 16.9002 9.05846 16.9002 9.00923C17.0002 8.61539 17.1002 8.20923 17.2002 7.80308C17.3002 7.39693 17.4002 6.99077 17.5002 6.59693C17.5502 6.49846 17.5502 6.44923 17.4002 6.4C16.9002 6.30154 16.4502 6.20308 15.9502 6.05539C15.8002 6.00616 15.7502 6.05539 15.7002 6.20308C15.6002 6.62153 15.5002 7.02768 15.4002 7.43382C15.3002 7.83999 15.2002 8.24615 15.1002 8.66462C15.0502 8.81231 15.0002 8.86154 14.8502 8.81231C14.5752 8.73846 14.3002 8.67693 14.0252 8.61539C13.7502 8.55385 13.4752 8.49231 13.2002 8.41846C12.9252 8.34462 12.6502 8.28308 12.3752 8.22154C12.1384 8.16855 11.9016 8.11557 11.6648 8.05472ZM14.1003 20.1846C14.1503 20.1846 14.2003 20.2338 14.2003 20.2338C14.3256 20.2647 14.4521 20.2967 14.5796 20.329L14.5796 20.329C15.2665 20.503 15.9834 20.6846 16.7003 20.7262C17.3003 20.7754 17.8503 20.7754 18.4003 20.5785C19.3503 20.2831 19.7503 19.0523 19.2003 18.2646C18.9503 17.8708 18.5503 17.6246 18.1503 17.3785C17.2767 16.9006 16.2619 16.7011 15.2886 16.5097L15.2885 16.5097L15.2003 16.4923C15.0636 16.4474 15.0515 16.4844 15.0125 16.6031L15.0003 16.64C14.9503 16.8862 14.8878 17.12 14.8253 17.3538L14.8253 17.3539C14.7628 17.5877 14.7003 17.8215 14.6503 18.0677C14.5363 18.4604 14.4386 18.8531 14.3386 19.2549L14.3386 19.255L14.3386 19.255C14.2631 19.5584 14.1863 19.8669 14.1003 20.1846ZM18.8501 15.0646C18.6501 15.1138 18.4001 15.1631 18.3001 15.1631C17.7198 15.1631 17.2185 15.0854 16.7007 15.0051C16.5046 14.9747 16.3061 14.944 16.1001 14.9169C16.0001 14.8923 15.9126 14.8677 15.8251 14.8431C15.7376 14.8185 15.6501 14.7938 15.5501 14.7692C15.4501 14.72 15.4001 14.6708 15.4501 14.5723C15.7501 13.5385 16.0001 12.5538 16.2501 11.52C16.3001 11.3723 16.3501 11.3231 16.5001 11.3723C16.649 11.4114 16.7959 11.4486 16.9413 11.4853C17.5281 11.6337 18.0891 11.7756 18.6501 12.0123C19.1001 12.2092 19.5501 12.5046 19.8001 12.9477C20.3001 13.7846 19.8001 14.8677 18.8501 15.0646Z" fill="white"/>
</svg>
