<svg width="32" height="32" viewBox="0 0 32 32" fill="none" xmlns="http://www.w3.org/2000/svg">
<rect width="32" height="32" fill="#D8D8D8" fill-opacity="0.01"/>
<path fill-rule="evenodd" clip-rule="evenodd" d="M5.7 5C5.2 2.4 7.2 0 9.8 0C12.1 0 14 1.9 14 4.2V9.4C14.6 9.4 15.2 9.3 15.8 9.3C16.4 9.3 16.9 9.3 17.5 9.4V4.2C17.5 1.9 19.4 0 21.7 0C24.3 0 26.3 2.4 25.9 5L24.8 11.1C28.7 12.8 31.7 15.8 31.7 19.5V21.8C31.7 24.9 29.7 27.5 26.8 29.2C23.9 31 20.1 32 15.8 32C11.5 32 7.7 31 4.8 29.2C2 27.5 0 24.9 0 21.8V19.5C0 15.8 2.9 12.8 6.8 11.1L5.7 5ZM23.3 11.9L24.6 4.7C24.9 2.9 23.6 1.2 21.7 1.2C20.1 1.2 18.8 2.5 18.8 4.1V10.7C18.4 10.6 17.9 10.6 17.5 10.6C16.9 10.6 16.4 10.5 15.8 10.5C15.2 10.5 14.6 10.5 14 10.6C13.6 10.6 13.1 10.7 12.7 10.7V4.2C12.7 2.6 11.4 1.3 9.8 1.3C8 1.3 6.6 3 7 4.8L8.3 12C4.1 13.6 1.3 16.4 1.3 19.6V21.9C1.3 26.8 7.8 30.8 15.8 30.8C23.8 30.8 30.3 26.8 30.3 21.9V19.6C30.4 16.3 27.6 13.5 23.3 11.9Z" fill="#633001"/>
<path d="M30.4004 21.8C30.4004 26.7 23.9004 30.7 15.9004 30.7C7.90039 30.7 1.40039 26.7 1.40039 21.8V19.5H30.5004V21.8H30.4004Z" fill="#FEDC90"/>
<path fill-rule="evenodd" clip-rule="evenodd" d="M7.00039 4.79999C6.60039 2.99999 8.00039 1.29999 9.80039 1.29999C11.4004 1.29999 12.7004 2.59999 12.7004 4.19999V10.8C13.7004 10.7 14.7004 10.6 15.8004 10.6C16.8004 10.6 17.8004 10.7 18.8004 10.8V4.19999C18.8004 2.59999 20.1004 1.29999 21.7004 1.29999C23.5004 1.29999 24.9004 2.99999 24.6004 4.79999L23.3004 12C27.5004 13.6 30.4004 16.4 30.4004 19.6C30.4004 24.5 23.9004 28.5 15.9004 28.5C7.90039 28.5 1.40039 24.5 1.40039 19.6C1.40039 16.4 4.20039 13.6 8.40039 12L7.00039 4.79999Z" fill="#D1884F"/>
<path d="M11.7996 18.9C11.7996 20.2 11.0996 21.3 10.1996 21.3C9.29961 21.3 8.59961 20.2 8.59961 18.9C8.59961 17.6 9.29961 16.5 10.1996 16.5C11.0996 16.5 11.7996 17.6 11.7996 18.9Z" fill="#633001"/>
<path d="M22.9002 18.9C22.9002 20.2 22.2002 21.3 21.3002 21.3C20.4002 21.3 19.7002 20.2 19.7002 18.9C19.7002 17.6 20.4002 16.5 21.3002 16.5C22.2002 16.5 22.9002 17.6 22.9002 18.9Z" fill="#633001"/>
</svg>
