<svg width="32" height="32" viewBox="0 0 32 32" fill="none" xmlns="http://www.w3.org/2000/svg">
<rect width="32" height="32" fill="#D8D8D8" fill-opacity="0.01"/>
<path d="M16.1226 0C9.43867 0.0268481 4.02685 5.43867 4 12.1226C4 13.4611 4.21606 14.7908 4.63924 16.0603C4.95503 16.9246 5.89215 17.3899 6.77175 17.1227C7.62194 16.7967 8.07325 15.8672 7.80221 14.9979C7.44295 14.0083 7.28314 12.9587 7.33045 11.9078C7.47619 7.08024 11.5073 3.28442 16.3348 3.43017C21.1624 3.57592 24.9582 7.60697 24.8124 12.4345C24.6756 16.954 21.1163 20.6245 16.602 20.8994C16.602 20.8994 14.9003 21.0029 14.054 21.1065C13.742 21.1512 13.4326 21.2126 13.1271 21.2906C13.0836 21.3353 13.0133 21.3353 12.9686 21.2918L12.9673 21.2906C12.9366 21.2509 12.9366 21.1947 12.9673 21.1551L13.2306 19.718L14.8287 12.5304C15.0205 11.6329 14.449 10.7495 13.5515 10.5577C12.654 10.3659 11.7706 10.9374 11.5788 11.8349C11.5788 11.8349 7.77792 29.4281 7.77792 29.5879C7.56057 30.4432 8.07708 31.3126 8.93239 31.5299C8.94134 31.5325 8.95156 31.5351 8.96051 31.5363H9.04873C9.90275 31.7575 10.7747 31.2436 10.9946 30.3895C10.9984 30.3755 11.0022 30.3614 11.0048 30.3461C11.0022 30.3192 11.0022 30.2924 11.0048 30.2668C11.0521 30.0597 11.5315 27.7188 11.5315 27.7188C11.8946 25.9519 13.3189 24.598 15.1011 24.3244C15.468 24.2682 17.0098 24.1646 17.0098 24.1646C23.6682 23.5011 28.5277 17.5651 27.8629 10.9067C27.2569 4.83394 22.226 0.158532 16.1226 0Z" fill="#1E1E1E"/>
<path d="M16.8575 27.9515C15.7644 27.724 14.6956 28.4258 14.468 29.5177C14.4654 29.5279 14.4642 29.5381 14.4616 29.5484C14.2251 30.6338 14.9129 31.7064 15.9996 31.9429C16.0009 31.9429 16.0022 31.9429 16.0034 31.9442H16.0597C17.1234 32.2012 18.1935 31.5466 18.4492 30.4842C18.4517 30.4765 18.453 30.4676 18.4556 30.4599V30.3487C18.6435 29.2517 17.9429 28.1996 16.8575 27.9515Z" fill="#E6007A"/>
</svg>
