<svg width="32" height="32" viewBox="0 0 32 32" fill="none" xmlns="http://www.w3.org/2000/svg">
<rect width="32" height="32" fill="white" fill-opacity="0.01"/>
<path d="M9.04627 2.00176C16.6964 1.99941 24.347 1.99941 31.9981 2.00176C32.0004 4.47458 32.0004 6.94697 31.9981 9.41893C24.3477 9.42128 16.6971 9.42128 9.04627 9.41893C9.04382 6.94611 9.04382 4.47372 9.04627 2.00176Z" fill="#02A6C2"/>
<path d="M0.00959986 12.2094C2.47772 12.1966 4.94627 12.1966 7.41525 12.2094C7.42805 14.6776 7.42805 17.1461 7.41525 19.6151C4.94638 19.6278 2.47783 19.628 0.00959986 19.6157C-0.00319995 17.1472 -0.00319995 14.6784 0.00959986 12.2094Z" fill="#5FCADE"/>
<path d="M9.0521 12.2094C14.5738 12.1977 20.0952 12.1977 25.6162 12.2094C25.6279 14.6775 25.6279 17.1461 25.6162 19.6151C20.0945 19.6266 14.5732 19.6266 9.0521 19.6151C9.04058 17.1468 9.04058 14.6783 9.0521 12.2094Z" fill="#5FCADE"/>
<path d="M9.05926 22.4194C11.5232 22.3926 13.9868 22.3926 16.4499 22.4194C16.4755 24.8817 16.4758 27.3453 16.451 29.81C13.987 29.8343 11.5235 29.8339 9.06054 29.8087C9.03494 27.3466 9.03451 24.8834 9.05926 22.4194Z" fill="#ABEBF4"/>
</svg>
