<svg width="32" height="32" viewBox="0 0 32 32" fill="none" xmlns="http://www.w3.org/2000/svg">
<circle cx="16" cy="16" r="16" fill="#172852"/>
<path d="M12.888 7.15038C14.7616 6.44958 16.8704 6.44798 18.7792 7.02398C21.264 7.79518 23.3616 9.67038 24.4576 12.024C24.76 12.6944 25.0496 13.3936 25.0784 14.1392C23.6816 13.3296 22.1504 12.8048 20.616 12.3264C18.1616 11.4416 15.592 10.8272 13.2688 9.61118C12.728 9.28798 12.0384 8.95678 11.8912 8.28318C11.832 7.70078 12.448 7.37598 12.888 7.15038Z" fill="#FFD83D"/>
<path d="M7.23186 12.8144C7.77426 11.3424 8.66386 9.976 9.87186 8.9632C10.1791 11.4896 11.2543 13.9312 13.0303 15.768C15.1599 17.9808 18.1935 19.3392 21.2799 19.288C22.5055 19.3264 23.7039 19.0432 24.8991 18.8144C23.7231 23.064 19.0655 25.8848 14.7503 25.2064C12.1455 24.8736 9.74066 23.3312 8.28946 21.1536C6.65266 18.7472 6.23986 15.552 7.23186 12.8144Z" fill="#FFD83D"/>
<path d="M20.6162 12.3264C22.1506 12.8048 23.6818 13.3296 25.0786 14.1392L25.173 14.1888C25.3026 15.1632 25.397 16.1568 25.2242 17.1328C24.5218 16.8352 23.9522 16.312 23.357 15.8496C22.2114 14.896 21.0418 13.8048 20.6162 12.3264Z" fill="#FF6F03"/>
</svg>
