<svg width="32" height="32" viewBox="0 0 32 32" fill="none" xmlns="http://www.w3.org/2000/svg">
<rect width="32" height="32" fill="#D8D8D8" fill-opacity="0.01"/>
<path d="M24.2298 10.6057C23.6449 10.2715 22.893 10.2715 22.2245 10.6057L17.5457 13.3629L14.3708 15.1175L9.77546 17.8747C9.1906 18.2089 8.43864 18.2089 7.77024 17.8747L4.17755 15.7023C3.59269 15.3681 3.17493 14.6997 3.17493 13.9478V9.77024C3.17493 9.10183 3.50914 8.43342 4.17755 8.01567L7.77024 5.92689C8.35509 5.59269 9.10705 5.59269 9.77546 5.92689L13.3681 8.09922C13.953 8.43342 14.3708 9.10183 14.3708 9.85379V12.611L17.5457 10.7728V7.93212C17.5457 7.26371 17.2115 6.5953 16.5431 6.17755L9.85901 2.25065C9.27415 1.91645 8.52219 1.91645 7.85379 2.25065L1.00261 6.2611C0.334204 6.5953 0 7.26371 0 7.93212V15.7859C0 16.4543 0.334204 17.1227 1.00261 17.5405L7.77024 21.4674C8.35509 21.8016 9.10705 21.8016 9.77546 21.4674L14.3708 18.7937L17.5457 16.9556L22.141 14.282C22.7258 13.9478 23.4778 13.9478 24.1462 14.282L27.7389 16.3708C28.3238 16.705 28.7415 17.3734 28.7415 18.1253V22.3029C28.7415 22.9713 28.4073 23.6397 27.7389 24.0574L24.2298 26.1462C23.6449 26.4804 22.893 26.4804 22.2245 26.1462L18.6319 24.0574C18.047 23.7232 17.6292 23.0548 17.6292 22.3029V19.6292L14.4543 21.4674V24.2245C14.4543 24.893 14.7885 25.5614 15.4569 25.9791L22.2245 29.906C22.8094 30.2402 23.5614 30.2402 24.2298 29.906L30.9974 25.9791C31.5822 25.6449 32 24.9765 32 24.2245V16.2872C32 15.6188 31.6658 14.9504 30.9974 14.5326L24.2298 10.6057Z" fill="#8247E5"/>
</svg>
