<svg width="32" height="32" viewBox="0 0 32 32" fill="none" xmlns="http://www.w3.org/2000/svg">
<rect width="32" height="32" fill="#D8D8D8" fill-opacity="0.01"/>
<path d="M23.1584 2.81703C22.3351 3.64037 21.5808 4.53274 20.9102 5.48426L20.6982 5.41524C19.4756 5.0159 18.2085 4.76939 16.9316 4.68557C16.547 4.65599 15.1123 4.65599 14.644 4.68557C13.229 4.77925 12.1444 4.99124 10.9118 5.42017C10.8625 5.43989 10.8182 5.45468 10.7738 5.46947C10.0786 4.52288 9.30458 3.63544 8.45166 2.82196C12.5437 0.726632 17.3309 0.475192 21.6153 2.1268C22.0738 2.29936 22.5224 2.5015 22.9612 2.71843L23.1584 2.81703Z" fill="#F00500"/>
<path d="M30.7905 21.5173C30.1693 23.2872 29.2375 24.929 28.0296 26.3587C27.3739 27.1278 26.6492 27.8329 25.8702 28.4738C24.046 29.943 21.9162 30.9931 19.6434 31.5453C17.129 32.1517 14.5061 32.1517 11.9917 31.5453C9.71396 30.9931 7.58905 29.943 5.76488 28.4738C4.98591 27.8329 4.26117 27.1278 3.60546 26.3587C0.129674 22.2519 -0.925386 16.6117 0.844551 11.5287C1.1798 10.5871 1.59887 9.6799 2.10175 8.81712C2.33347 8.4227 2.61942 7.97899 2.75746 7.79657C3.23076 9.83274 3.81252 11.6224 4.02945 12.2683C4.01466 12.3028 3.99494 12.3422 3.97522 12.3767C2.82649 14.7038 2.20528 16.947 2.05738 19.3332C2.05738 19.3628 2.05245 19.3973 2.05245 19.4269C2.01301 20.1418 2.03273 20.4819 2.15105 20.9306C2.52082 22.3357 3.65969 23.8838 5.44442 25.4023C8.36802 27.8871 12.3319 29.6817 15.3344 29.8887C18.465 30.1007 23.0846 28.2716 26.1611 25.5995C26.6442 25.1706 27.0978 24.717 27.5218 24.2338C27.8275 23.8788 28.281 23.2675 28.2465 23.2675C28.2367 23.2675 28.2465 23.2576 28.2663 23.2478C28.281 23.2379 28.2958 23.2231 28.286 23.2133C28.281 23.2083 28.2909 23.1936 28.3057 23.1886C28.3205 23.1837 28.3304 23.1738 28.3254 23.164C28.3205 23.1541 28.3254 23.1442 28.3451 23.1393C28.3599 23.1344 28.3649 23.1196 28.3599 23.1097C28.355 23.0999 28.3599 23.09 28.3698 23.09C28.3797 23.09 28.3895 23.0752 28.3895 23.0654C28.3895 23.0555 28.3994 23.0407 28.4092 23.0407C28.4191 23.0407 28.429 23.0309 28.429 23.021C28.4437 22.9816 28.4684 22.9421 28.493 22.9076C28.567 22.7942 28.8628 22.2667 28.9023 22.1779C29.1833 21.5419 29.3608 20.975 29.4446 20.408C29.484 20.1368 29.5087 19.6389 29.4889 19.5206C29.484 19.5008 29.484 19.4663 29.4791 19.4121C29.4692 19.3135 29.4643 19.1656 29.4544 19.0177C29.4446 18.7958 29.4249 18.4852 29.4101 18.3324C29.1981 16.0941 28.6262 14.265 27.5415 12.3274C27.4971 12.2535 27.4577 12.1795 27.4331 12.1203C27.4232 12.1056 27.4183 12.0908 27.4133 12.0809C27.5662 11.6224 28.1923 9.70455 28.6903 7.51062L28.7001 7.52048L28.7741 7.61908C28.9023 7.79164 29.2424 8.30438 29.3953 8.55089C30.0904 9.68483 30.6327 10.9026 31.0173 12.1746C31.9097 15.2362 31.8357 18.5 30.7905 21.5173Z" fill="#F00500"/>
<path d="M24.3913 15.6257C24.3765 15.7046 24.1448 15.9412 23.9131 16.1138C23.2327 16.6117 22.0149 17.0752 20.7775 17.297C20.0725 17.4252 19.3674 17.4449 19.1554 17.3414C19.0174 17.2724 18.9977 17.2182 19.047 17.0407C19.1505 16.6709 19.4858 16.2666 20.0084 15.887C20.2746 15.6947 21.3543 15.039 21.8572 14.7629C22.6855 14.3093 23.356 14.0382 23.8095 13.9741C23.9525 13.9544 24.1251 13.9494 24.1793 13.9741C24.268 14.0086 24.3666 14.2699 24.4061 14.5854C24.4258 14.7531 24.4159 15.4926 24.3913 15.6257Z" fill="black"/>
<path d="M12.7755 17.2575C12.7459 17.3167 12.598 17.3808 12.4304 17.4054C12.2627 17.4301 11.75 17.4153 11.4591 17.3808C10.4139 17.2427 9.30462 16.9223 8.49607 16.5279C8.04249 16.306 7.7171 16.0842 7.47552 15.8426L7.33748 15.6996L7.32268 15.5123C7.29803 15.1869 7.30296 14.6741 7.34241 14.4917C7.36706 14.3389 7.42129 14.191 7.49524 14.0578C7.53468 14.0085 7.53468 14.0085 7.71217 14.0085C7.9291 14.0085 8.11151 14.0431 8.40733 14.1367C9.01374 14.3241 9.91596 14.7777 11.0154 15.4383C11.9226 15.9806 12.2627 16.2469 12.524 16.6117C12.7015 16.8385 12.8198 17.1589 12.7755 17.2575Z" fill="black"/>
<path d="M19.7567 24.1204C19.7567 24.1352 19.6975 24.3719 19.6236 24.6529C19.5496 24.9339 19.4904 25.1607 19.4904 25.1705C19.4362 25.1755 19.3869 25.1804 19.3327 25.1755H19.1749L18.958 25.6882C18.8397 25.9692 18.7312 26.2305 18.7164 26.27L18.6868 26.339L18.5833 26.1714L18.4798 26.0037V24.6381L18.4403 24.6479C18.3565 24.6677 17.7599 24.7465 17.4986 24.7712C16.4189 24.8797 15.3343 24.855 14.2595 24.7022C14.087 24.6775 13.939 24.6578 13.9341 24.6627C13.9292 24.6677 13.9341 24.9832 13.944 25.3727L13.9588 26.0728L13.875 26.201C13.8306 26.27 13.7862 26.3291 13.7862 26.3341C13.7714 26.3489 13.7221 26.27 13.6087 26.0432C13.4855 25.8065 13.3967 25.5551 13.3326 25.2938L13.2981 25.1508L13.1453 25.1607L12.9925 25.1755L12.953 24.9931C12.9333 24.8945 12.9086 24.7416 12.8988 24.6578L12.884 24.5L12.7558 24.3866C12.6818 24.3226 12.6079 24.2585 12.5931 24.2486C12.5685 24.2289 12.5586 24.1944 12.5586 24.1648V24.1056L13.1749 24.1106L13.7911 24.1155L13.8109 24.1796L13.8306 24.2437L14.0426 24.2535C14.1609 24.2585 14.5356 24.2683 14.8709 24.2782L15.4871 24.293L15.6449 24.0465L15.8076 23.8H16.0147L16.0097 23.2872L16.0048 22.7745L15.7336 22.6561C14.861 22.2716 14.3483 21.8328 14.156 21.3003C14.1165 21.1919 14.1165 21.1524 14.1067 20.6594C14.1017 20.1713 14.1017 20.127 14.1363 20.0185C14.2053 19.772 14.3976 19.5797 14.6441 19.5156C14.7279 19.491 14.9497 19.491 16.1133 19.491L17.4839 19.4959L17.6367 19.5698C17.8191 19.6586 17.9029 19.7227 18.0065 19.8607C18.1248 20.0185 18.1593 20.1418 18.1593 20.4425C18.1593 20.8714 18.1297 21.2412 18.0853 21.3891C18.0212 21.5912 17.9226 21.7835 17.7994 21.9561C17.5529 22.2716 17.1042 22.5871 16.695 22.7301L16.5767 22.7745L16.5816 23.2921L16.5866 23.8098L16.695 23.8197L16.8035 23.8295L16.9514 24.0514L17.0944 24.2732H17.755C18.1198 24.2732 18.4403 24.2782 18.4699 24.2831C18.5192 24.293 18.5291 24.288 18.5784 24.2042L18.6375 24.1155H19.2045C19.6285 24.0958 19.7567 24.1056 19.7567 24.1204Z" fill="black"/>
<path d="M17.1536 25.5354C17.06 25.5896 16.9959 25.6143 16.9811 25.6044C16.9663 25.5995 16.8973 25.5403 16.8233 25.4861L16.6902 25.3776L16.5521 25.5255C16.2514 25.8509 16.2415 25.8657 16.1528 25.8707C16.0148 25.8854 15.9852 25.8608 15.8176 25.6094C15.7288 25.4812 15.6598 25.3727 15.6598 25.3727C15.6598 25.3727 15.5957 25.3628 15.5217 25.3579L15.3837 25.3431L15.3196 25.4762L15.2555 25.6094L15.1421 25.5748C15.0534 25.5453 14.9646 25.5107 14.8808 25.4713L14.7329 25.3974V25.1163L16.0443 25.1213L17.3558 25.1262L17.3607 25.2593C17.3656 25.4171 17.3706 25.4121 17.1536 25.5354Z" fill="black"/>
<path fill-rule="evenodd" clip-rule="evenodd" d="M29.4735 19.4659L29.4735 19.4658C29.4725 19.4506 29.4713 19.4327 29.4694 19.412C28.2862 19.2838 24.909 19.205 21.7734 21.7933C21.7734 21.7933 20.7627 17.1589 16.0297 17.1589C11.2967 17.1589 9.5416 21.7933 9.5416 21.7933C6.88915 18.9387 3.33942 19.1458 2.05757 19.3331C2.05757 19.3479 2.05634 19.364 2.05511 19.38C2.05387 19.396 2.05264 19.412 2.05264 19.4268C2.0132 20.1417 2.03292 20.4819 2.15124 20.9305C2.52101 22.3356 3.65988 23.8837 5.44461 25.4022C8.36821 27.887 12.3321 29.6816 15.3346 29.8887C18.4652 30.1007 23.0848 28.2716 26.1613 25.5994C26.6444 25.1705 27.098 24.7169 27.522 24.2338C27.8277 23.8788 28.2812 23.2674 28.2467 23.2674C28.2369 23.2674 28.2467 23.2576 28.2665 23.2477C28.2812 23.2379 28.296 23.2231 28.2862 23.2132C28.2812 23.2083 28.2911 23.1935 28.3059 23.1886C28.3207 23.1836 28.3305 23.1738 28.3256 23.1639C28.3207 23.154 28.3256 23.1442 28.3453 23.1393C28.3601 23.1343 28.3651 23.1195 28.3601 23.1097C28.3552 23.0998 28.3601 23.09 28.37 23.09C28.3798 23.09 28.3897 23.0752 28.3897 23.0653C28.3897 23.0554 28.3996 23.0407 28.4094 23.0407C28.4193 23.0407 28.4291 23.0308 28.4291 23.0209C28.4439 22.9815 28.4686 22.942 28.4932 22.9075C28.5672 22.7941 28.863 22.2666 28.9024 22.1779C29.1835 21.5419 29.361 20.9749 29.4448 20.4079C29.4743 20.1368 29.499 19.6388 29.4793 19.5205C29.4762 19.5083 29.4751 19.4905 29.4735 19.4659ZM17.1538 25.5353C17.0601 25.5896 16.996 25.6142 16.9813 25.6043C16.9728 25.6015 16.9467 25.5811 16.9121 25.5539C16.8861 25.5335 16.8552 25.5093 16.8235 25.486L16.6904 25.3776L16.5523 25.5255L16.5149 25.5659C16.2506 25.8521 16.2379 25.8659 16.153 25.8706C16.0149 25.8854 15.9854 25.8607 15.8177 25.6093C15.729 25.4811 15.66 25.3726 15.66 25.3726C15.66 25.3726 15.5959 25.3628 15.5219 25.3578L15.3839 25.343L15.3198 25.4762L15.2557 25.6093L15.1423 25.5748C15.0535 25.5452 14.9648 25.5107 14.881 25.4712L14.7331 25.3973V25.1163L16.0445 25.1212L17.3559 25.1261L17.3609 25.2592C17.361 25.2628 17.3611 25.2663 17.3612 25.2696C17.3631 25.3287 17.3642 25.3638 17.3512 25.3924C17.3321 25.434 17.283 25.4619 17.1622 25.5306L17.1538 25.5353ZM19.4858 25.1656C19.4858 25.1557 19.5449 24.9289 19.6189 24.6479L19.6268 24.6184C19.6974 24.3548 19.7575 24.1304 19.7717 24.1352C19.7717 24.1204 19.6436 24.1154 19.2048 24.1154H18.6378L18.5786 24.2042C18.5293 24.288 18.5195 24.2929 18.4702 24.2831C18.4406 24.2781 18.1201 24.2732 17.7553 24.2732H17.0946L16.9517 24.0513L16.8038 23.8295L16.6953 23.8196L16.5868 23.8098L16.5819 23.2921L16.577 22.7744L16.6953 22.73C17.1045 22.5871 17.5532 22.2715 17.7997 21.956C17.9229 21.7835 18.0215 21.5912 18.0856 21.389C18.13 21.2411 18.1596 20.8714 18.1596 20.4424C18.1596 20.1417 18.1251 20.0184 18.0067 19.8607C17.9032 19.7226 17.8194 19.6585 17.637 19.5698L17.4841 19.4958L16.1135 19.4909C14.95 19.4909 14.7282 19.4909 14.6443 19.5156C14.3978 19.5797 14.2056 19.7719 14.1365 20.0184C14.102 20.1269 14.102 20.1713 14.107 20.6594L14.1076 20.6894C14.1168 21.154 14.1176 21.1941 14.1563 21.3003C14.3485 21.8328 14.8613 22.2715 15.7339 22.6561L16.0051 22.7744L16.01 23.2872L16.0149 23.7999H15.8079L15.6452 24.0464L15.4874 24.2929L14.8711 24.2781C14.7626 24.2749 14.6499 24.2717 14.5431 24.2687C14.3201 24.2624 14.1229 24.2568 14.0429 24.2535L13.8309 24.2436L13.8111 24.1795L13.7914 24.1154L13.1751 24.1105L12.5589 24.1056V24.1647C12.5589 24.1943 12.5687 24.2288 12.5934 24.2485C12.6082 24.2584 12.6821 24.3225 12.7561 24.3866L12.8843 24.5L12.8991 24.6578C12.9089 24.7416 12.9336 24.8944 12.9533 24.993L12.9927 25.1754L13.1456 25.1606L13.2984 25.1508L13.3329 25.2937C13.397 25.555 13.4857 25.8065 13.609 26.0431C13.7224 26.2699 13.7717 26.3488 13.7865 26.334C13.7865 26.3316 13.7976 26.3155 13.8142 26.2915C13.8309 26.2675 13.853 26.2354 13.8752 26.2009L13.959 26.0727L13.9443 25.3726C13.9344 24.9831 13.9295 24.6676 13.9344 24.6627C13.9393 24.6578 14.0872 24.6775 14.2598 24.7021C15.3346 24.855 16.4192 24.8796 17.4989 24.7711C17.7602 24.7465 18.3568 24.6676 18.4406 24.6479L18.48 24.638V26.0037L18.5836 26.1713L18.6871 26.3389L18.7167 26.2699C18.7315 26.2305 18.8399 25.9692 18.9583 25.6882L19.1703 25.1705H19.328C19.38 25.1752 19.4274 25.1709 19.479 25.1662L19.4858 25.1656Z" fill="white"/>
<path fill-rule="evenodd" clip-rule="evenodd" d="M29.4395 19.0176C29.4296 18.7957 29.4099 18.4851 29.3951 18.3323C29.1831 16.094 28.6112 14.2649 27.5266 12.3273C27.4822 12.2534 27.4428 12.1794 27.4181 12.1202C27.4112 12.1099 27.4068 12.0996 27.403 12.091L27.403 12.091C27.4014 12.0872 27.3999 12.0838 27.3984 12.0808C27.5512 11.6223 28.1774 9.70446 28.6753 7.51052C29.3507 4.53269 29.7797 1.05198 28.4682 0.00677499C28.4682 0.00677499 26.2004 -0.160851 23.1634 2.81698C22.34 3.64032 21.5857 4.53269 20.9152 5.48421L20.7032 5.41519C19.4805 5.01585 18.2135 4.76934 16.9365 4.68552C16.552 4.65594 15.1173 4.65594 14.6489 4.68552C13.234 4.7792 12.1493 4.9912 10.9168 5.42012C10.8675 5.43984 10.8231 5.45463 10.7787 5.46942C10.0836 4.52283 9.30953 3.63539 8.45661 2.82191C5.29636 -0.170712 2.94466 0.0018448 2.94466 0.0018448C1.55434 1.08156 2.02764 4.72004 2.74745 7.79647C3.22075 9.83264 3.80251 11.6223 4.01944 12.2682C4.00465 12.3027 3.98493 12.3421 3.96521 12.3766C2.81647 14.7037 2.19527 16.9469 2.04736 19.3331C3.33414 19.1458 6.87895 18.9338 9.53632 21.7933C9.53632 21.7933 11.2915 17.1589 16.0244 17.1589C20.7574 17.1589 21.7681 21.7933 21.7681 21.7933C24.9037 19.2049 28.2809 19.2887 29.4641 19.412C29.4592 19.3134 29.4494 19.1655 29.4395 19.0176ZM4.95124 10.4095C4.95124 10.4095 3.10735 5.79975 3.58065 3.16703C3.65953 2.72331 3.80744 2.33382 4.03916 2.03801C4.03916 2.03801 6.12956 2.24508 9.50181 5.99202C9.50181 5.99202 8.86088 6.30263 8.00303 6.96327C8.00303 6.96327 7.9981 6.9682 7.99317 6.9682C7.06136 7.68308 5.86826 8.81702 4.95124 10.4095ZM12.4303 17.4054C12.598 17.3808 12.7459 17.3167 12.7755 17.2575C12.8198 17.1589 12.7015 16.8384 12.524 16.6116C12.2627 16.2468 11.9225 15.9806 11.0154 15.4383C9.91594 14.7776 9.01372 14.324 8.40731 14.1367C8.1115 14.043 7.92908 14.0085 7.71215 14.0085C7.5869 14.0085 7.55003 14.0085 7.52532 14.0258C7.51502 14.0331 7.50683 14.0433 7.49522 14.0578C7.42127 14.1909 7.36704 14.3388 7.34239 14.4917C7.30294 14.6741 7.29801 15.1868 7.32266 15.5122L7.33746 15.6996L7.4755 15.8425C7.71708 16.0841 8.04247 16.306 8.49605 16.5278C9.3046 16.9223 10.4139 17.2427 11.4591 17.3808C11.75 17.4153 12.2627 17.4301 12.4303 17.4054ZM24.391 15.6256C24.3762 15.7045 24.1445 15.9411 23.9127 16.1137C23.2324 16.6116 22.0146 17.0751 20.7771 17.2969C20.0721 17.4251 19.3671 17.4449 19.1551 17.3413C19.0171 17.2723 18.9974 17.2181 19.0467 17.0406C19.1502 16.6708 19.4854 16.2665 20.008 15.8869C20.2743 15.6946 21.354 15.0389 21.8569 14.7628C22.6851 14.3093 23.3556 14.0381 23.8092 13.974C23.9522 13.9543 24.1247 13.9493 24.179 13.974C24.2677 14.0085 24.3663 14.2698 24.4058 14.5853C24.4255 14.753 24.4156 15.4925 24.391 15.6256ZM23.5627 6.95834L23.5726 6.96327C24.7657 7.90987 25.7665 9.08325 26.511 10.4095C26.511 10.4095 28.2908 5.79482 27.8322 3.1621C27.7534 2.71838 27.6104 2.33382 27.3885 2.03308C27.3885 2.03308 25.3721 2.24015 22.1132 5.98709C22.1132 5.98709 22.7344 6.2977 23.5627 6.95834Z" fill="#FFA409"/>
<path d="M27.8372 3.16209C27.4527 3.11279 25.6334 3.10293 23.5726 6.96327L23.5628 6.95834C22.7345 6.29769 22.1133 5.98709 22.1133 5.98709C25.3721 2.24015 27.3886 2.03308 27.3886 2.03308C27.6154 2.33382 27.7583 2.71838 27.8372 3.16209Z" fill="#FF9300"/>
<path d="M26.5161 10.4095C25.7667 9.07836 24.7708 7.90991 23.5728 6.96331C25.6336 3.10297 27.4479 3.11284 27.8374 3.16214C28.2959 5.79979 26.5161 10.4095 26.5161 10.4095Z" fill="#FF8300"/>
<path d="M27.9374 3.2099C27.9041 3.1999 27.8707 3.1899 27.8374 3.1799L27.9374 3.2099Z" fill="#FF8300"/>
<path d="M9.50177 5.98709C9.50177 5.98709 8.86085 6.29769 8.00299 6.95834C8.00299 6.95834 7.99806 6.96327 7.99313 6.96327C5.85836 3.098 3.97996 3.11279 3.57568 3.16209C3.65457 2.71838 3.80247 2.32889 4.03419 2.03308C4.03912 2.03308 6.12952 2.24015 9.50177 5.98709Z" fill="#FF9300"/>
<path d="M7.99807 6.96331C7.06133 7.68312 5.86823 8.81213 4.95121 10.4095C4.95121 10.4095 3.10732 5.79979 3.58062 3.16214C3.97997 3.11284 5.8633 3.10297 7.99807 6.96331Z" fill="#FF8300"/>
<path d="M3.60195 3.1799C3.5707 3.1899 3.5332 3.1999 3.50195 3.2099L3.60195 3.1799Z" fill="#FF8300"/>
<path d="M21.5269 12.9682C21.5269 12.9682 19.9492 13.0668 20.1465 11.8343C20.3437 10.6017 21.5762 10.4538 21.9213 10.5031C22.2664 10.5524 23.6469 11.0454 23.4004 12.0808C23.1539 13.1161 22.8088 12.9189 22.6115 12.9682C22.4143 13.0175 21.5269 12.9682 21.5269 12.9682Z" fill="white"/>
<path d="M9.89165 12.9682C9.89165 12.9682 8.31399 13.0668 8.5112 11.8343C8.70841 10.6017 9.94095 10.4538 10.2861 10.5031C10.6312 10.5524 12.0116 11.0454 11.7651 12.0808C11.5186 13.1161 11.1735 12.9189 10.9763 12.9682C10.7791 13.0175 9.89165 12.9682 9.89165 12.9682Z" fill="white"/>
</svg>
