<svg width="32" height="32" viewBox="0 0 32 32" fill="none" xmlns="http://www.w3.org/2000/svg">
<rect width="32" height="32" fill="#D8D8D8" fill-opacity="0.01"/>
<path d="M6.60283 3.02283L31.4611 19.996L25.3134 29.0839L0.455078 11.9772L6.60283 3.02283Z" fill="url(#paint0_linear_300_263)"/>
<path d="M31.4611 19.9959C29.3227 23.0698 22.1058 21.867 15.2898 17.0557C8.34018 12.3781 4.59807 6.09666 6.60277 3.02278C8.74112 -0.0510907 15.958 1.15173 22.774 5.96301C29.7237 10.507 33.4658 16.922 31.4611 19.9959Z" fill="url(#paint1_linear_300_263)"/>
<path d="M25.3134 28.9502C23.1751 32.0241 15.9582 30.8213 9.14219 26.01C2.3262 21.1987 -1.54955 15.051 0.588794 11.8435C2.72714 8.76959 9.94407 9.97241 16.7601 14.7837C23.576 19.595 27.3181 25.8764 25.3134 28.9502Z" fill="url(#paint2_linear_300_263)"/>
<path d="M31.461 19.9959L25.3133 29.0839C23.1749 32.1577 15.958 30.8213 9.14201 26.1436C7.80554 25.2081 6.60272 24.2726 5.3999 23.2034C6.33543 23.0698 7.53825 22.5352 8.74107 21.1987C10.8794 18.9267 11.9486 18.3921 12.8841 18.5258C13.8196 18.5258 14.8888 19.4613 16.6262 21.7333C18.3636 24.0053 20.7693 24.6735 22.2394 23.4707C22.373 23.3371 22.5067 23.3371 22.6403 23.2034C23.8432 22.2679 24.2441 21.8669 26.5161 17.5902C27.0507 16.5211 28.9217 14.7837 31.461 15.5855C32.1293 17.323 32.1293 18.7931 31.461 19.9959Z" fill="#0E0F23"/>
<path fill-rule="evenodd" clip-rule="evenodd" d="M30.5257 19.4614C28.6547 22.1343 22.106 20.7978 15.8246 16.3875C9.40956 11.9772 5.66745 6.364 7.53851 3.69106C9.40956 1.01812 15.9583 2.35459 22.2396 6.76494C28.521 11.1753 32.2632 16.7884 30.5257 19.4614ZM24.6453 15.452C23.7098 16.7884 20.5022 16.1202 17.2947 13.9819C14.2208 11.8435 12.3498 9.03693 13.2853 7.70046C14.2208 6.364 17.4284 7.03223 20.6359 9.17058C23.7098 11.3089 25.5808 14.1155 24.6453 15.452Z" fill="white"/>
<path d="M6.06808 6.09672C6.06808 5.96307 5.93443 5.82943 5.80078 5.96307C5.66714 6.09672 5.53349 6.09672 5.53349 6.23037C5.66714 6.63131 5.80078 6.8986 5.80078 7.16589C5.80078 7.29954 5.93443 7.43319 6.06808 7.29954C6.20172 7.29954 6.33537 7.16589 6.20172 7.03225C6.20172 6.76495 6.20172 6.49766 6.06808 6.09672Z" fill="white"/>
<path d="M6.73639 8.23503C6.73639 8.10138 6.60274 7.96773 6.4691 8.10138C6.33545 8.23503 6.33545 8.23503 6.33545 8.36867C7.80556 11.7098 10.8794 15.3183 14.8888 17.9912C15.0225 18.1249 15.1561 17.9912 15.2898 17.9912C15.4234 17.8576 15.2898 17.7239 15.2898 17.5903C11.1467 14.9174 8.2065 11.4425 6.73639 8.23503Z" fill="white"/>
<path d="M22.9079 21.3324C22.7743 21.3324 22.6406 21.3324 22.6406 21.466C22.6406 21.5997 22.6406 21.7333 22.7743 21.7333C23.1752 21.8669 23.7098 22.0006 24.1107 22.1342C24.2444 22.1342 24.378 22.1342 24.378 22.0006C24.378 21.8669 24.378 21.7333 24.2444 21.7333C23.8434 21.5997 23.3089 21.466 22.9079 21.3324Z" fill="white"/>
<path d="M25.3137 21.867C25.18 21.867 25.0464 22.0006 25.0464 22.1343C25.0464 22.2679 25.18 22.4016 25.3137 22.4016C26.3829 22.5352 27.5857 22.6689 28.5212 22.5352C28.6548 22.5352 28.7885 22.4016 28.7885 22.2679C28.7885 22.1343 28.6548 22.0006 28.5212 22.0006C27.452 22.1343 26.3829 22.0006 25.3137 21.867Z" fill="white"/>
<defs>
<linearGradient id="paint0_linear_300_263" x1="1.40321" y1="2.68131" x2="4.94465" y2="19.8949" gradientUnits="userSpaceOnUse">
<stop stop-color="#03B8FF"/>
<stop offset="1" stop-color="#FA52A0"/>
</linearGradient>
<linearGradient id="paint1_linear_300_263" x1="4.74646" y1="1.36138" x2="7.84105" y2="18.6186" gradientUnits="userSpaceOnUse">
<stop stop-color="#03B8FF"/>
<stop offset="1" stop-color="#FA52A0"/>
</linearGradient>
<linearGradient id="paint2_linear_300_263" x1="-3.25556" y1="3.74118" x2="-0.100886" y2="20.9939" gradientUnits="userSpaceOnUse">
<stop stop-color="#03B8FF"/>
<stop offset="1" stop-color="#FA52A0"/>
</linearGradient>
</defs>
</svg>
