<svg width="32" height="32" viewBox="0 0 32 32" fill="none" xmlns="http://www.w3.org/2000/svg">
<rect width="32" height="32" fill="#D8D8D8" fill-opacity="0.01"/>
<path d="M12.8927 7.27798C12.5462 7.22847 12.5297 7.21197 12.6947 7.19546C13.0083 7.14595 13.7344 7.21197 14.246 7.32749C15.4343 7.60805 16.507 8.3342 17.6457 9.60495L17.9428 9.95152L18.3719 9.88551C20.2037 9.58845 22.0851 9.8195 23.6529 10.5456C24.082 10.7437 24.7587 11.1398 24.8412 11.2388C24.8742 11.2718 24.9237 11.4863 24.9567 11.7009C25.0722 12.4765 25.0227 13.0542 24.7752 13.4997C24.6431 13.7473 24.6431 13.8133 24.7257 14.0279C24.7917 14.1929 24.9897 14.3084 25.1712 14.3084C25.5673 14.3084 25.9799 13.6813 26.1779 12.8066L26.2605 12.46L26.409 12.6251C27.2507 13.5658 27.9108 14.8695 28.0098 15.7937L28.0428 16.0413L27.8943 15.8267C27.6467 15.4471 27.4157 15.1996 27.1021 14.985C26.541 14.6055 25.9469 14.4899 24.3791 14.4074C22.9598 14.3249 22.1511 14.2094 21.359 13.9453C20.0057 13.4997 19.3126 12.9221 17.7117 10.7932C17.0021 9.8525 16.5565 9.3409 16.1109 8.91181C15.1372 7.97112 14.1635 7.47602 12.8927 7.27798Z" fill="#FF007A"/>
<path d="M25.1879 9.37392C25.2209 8.74679 25.3034 8.33421 25.485 7.95463C25.551 7.8061 25.617 7.67407 25.6335 7.67407C25.65 7.67407 25.617 7.7896 25.5675 7.92162C25.4354 8.2847 25.4189 8.7963 25.5015 9.37392C25.617 10.1166 25.6665 10.2156 26.4587 11.0243C26.8217 11.4038 27.2508 11.8824 27.4159 12.0805L27.6964 12.4435L27.4159 12.1795C27.0693 11.8494 26.2771 11.2223 26.0956 11.1398C25.9801 11.0738 25.9636 11.0738 25.881 11.1563C25.815 11.2223 25.7985 11.3213 25.7985 11.7999C25.782 12.5426 25.683 13.0047 25.4354 13.4833C25.3034 13.7308 25.2869 13.6813 25.4024 13.4007C25.485 13.1862 25.5015 13.0872 25.5015 12.3775C25.5015 10.9417 25.3364 10.5952 24.3297 10.0175C24.0822 9.86902 23.6531 9.65447 23.4055 9.53895C23.1415 9.42343 22.9434 9.32441 22.9599 9.32441C22.993 9.2914 23.9666 9.57196 24.3462 9.73699C24.9238 9.96804 25.0229 9.98454 25.0889 9.96804C25.1384 9.91853 25.1714 9.7865 25.1879 9.37392Z" fill="#FF007A"/>
<path d="M13.5696 11.8329C12.8764 10.8757 12.4308 9.39041 12.5298 8.28468L12.5629 7.93811L12.7279 7.97112C13.0249 8.02063 13.5366 8.21867 13.7841 8.3672C14.4442 8.76328 14.7413 9.30789 15.0219 10.6612C15.1044 11.0572 15.2199 11.5193 15.2694 11.6679C15.3519 11.9154 15.6655 12.493 15.9295 12.8561C16.1111 13.1202 15.9956 13.2522 15.583 13.2192C14.9558 13.1532 14.1142 12.5756 13.5696 11.8329Z" fill="#FF007A"/>
<path d="M24.3462 19.0118C21.0786 17.6916 19.9233 16.5528 19.9233 14.622C19.9233 14.3414 19.9398 14.1104 19.9398 14.1104C19.9563 14.1104 20.0719 14.2094 20.2204 14.3249C20.8805 14.853 21.6232 15.084 23.6861 15.3811C24.8908 15.5626 25.584 15.6947 26.2111 15.9092C28.208 16.5694 29.4458 17.9226 29.7428 19.7545C29.8254 20.2826 29.7758 21.2893 29.6438 21.8174C29.5283 22.23 29.1982 22.9892 29.1157 23.0057C29.0992 23.0057 29.0662 22.9231 29.0662 22.7911C29.0332 22.098 28.6866 21.4378 28.109 20.9262C27.4159 20.3321 26.5247 19.8865 24.3462 19.0118Z" fill="#FF007A"/>
<path d="M22.036 19.5564C22.0029 19.3089 21.9204 18.9953 21.8709 18.8633L21.7884 18.6157L21.9369 18.7973C22.1515 19.0448 22.3165 19.3419 22.465 19.7545C22.5806 20.068 22.5806 20.167 22.5806 20.6786C22.5806 21.1737 22.5641 21.2893 22.465 21.5698C22.3 22.0154 22.102 22.329 21.7719 22.6755C21.1778 23.2862 20.4021 23.6162 19.2964 23.7648C19.0984 23.7813 18.5372 23.8308 18.0421 23.8638C16.8044 23.9298 15.9792 24.0618 15.2366 24.3259C15.1375 24.3589 15.0385 24.3919 15.022 24.3754C14.989 24.3424 15.5006 24.0453 15.9132 23.8473C16.4908 23.5667 17.0849 23.4182 18.3887 23.1872C19.0323 23.0881 19.6925 22.9561 19.8575 22.8901C21.4913 22.3785 22.3 21.1077 22.036 19.5564Z" fill="#FF007A"/>
<path d="M23.5375 22.2135C23.1084 21.2728 23.0094 20.3816 23.2404 19.5399C23.2734 19.4574 23.3065 19.3749 23.3395 19.3749C23.3725 19.3749 23.4715 19.4244 23.5705 19.4904C23.7685 19.6224 24.1811 19.8535 25.2373 20.4311C26.5741 21.1572 27.3333 21.7184 27.8614 22.362C28.3235 22.9231 28.604 23.5667 28.7361 24.3589C28.8186 24.8045 28.7691 25.8772 28.6535 26.3228C28.2905 27.7256 27.4653 28.8478 26.2606 29.4914C26.079 29.5905 25.9305 29.6565 25.914 29.6565C25.8975 29.6565 25.9635 29.4914 26.0625 29.2934C26.4586 28.4517 26.5081 27.6431 26.211 26.7354C26.0295 26.1743 25.6499 25.4976 24.8908 24.3589C23.9831 23.0386 23.7685 22.6921 23.5375 22.2135Z" fill="#FF007A"/>
<path d="M11.2426 27.2636C12.4638 26.2404 13.9656 25.5142 15.3519 25.2832C15.946 25.1841 16.9362 25.2172 17.4808 25.3657C18.3555 25.5967 19.1477 26.0918 19.5603 26.7025C19.9563 27.2966 20.1379 27.8082 20.3194 28.9469C20.3854 29.3925 20.4679 29.8546 20.4844 29.9536C20.6165 30.5477 20.8805 31.0098 21.2106 31.2574C21.7222 31.637 22.6134 31.6535 23.4881 31.3234C23.6366 31.2739 23.7686 31.2244 23.7686 31.2409C23.8016 31.2739 23.356 31.5709 23.059 31.7195C22.6464 31.934 22.3163 32 21.8707 32C21.0786 32 20.4019 31.5874 19.8573 30.7623C19.7418 30.5972 19.5107 30.1186 19.3127 29.6731C18.7351 28.3363 18.438 27.9402 17.7614 27.4946C17.1673 27.115 16.4081 27.0325 15.8305 27.3131C15.0713 27.6761 14.8733 28.6498 15.4014 29.244C15.616 29.4915 16.012 29.6896 16.3421 29.7391C16.9527 29.8216 17.4808 29.343 17.4808 28.7324C17.4808 28.3363 17.3323 28.1052 16.9362 27.9237C16.4081 27.6927 15.8305 27.9567 15.847 28.4683C15.847 28.6829 15.946 28.8149 16.1606 28.9139C16.2926 28.9799 16.2926 28.9799 16.1936 28.9634C15.715 28.8644 15.5995 28.2703 15.979 27.8907C16.4411 27.4286 17.4148 27.6266 17.7449 28.2703C17.8769 28.5343 17.8934 29.0624 17.7779 29.3925C17.4973 30.1186 16.7052 30.4982 15.8965 30.2837C15.3519 30.1351 15.1209 29.9866 14.4607 29.31C13.3055 28.1217 12.8599 27.8907 11.2096 27.6431L10.896 27.5936L11.2426 27.2636Z" fill="#FF007A"/>
<path fill-rule="evenodd" clip-rule="evenodd" d="M2.56185 0.709644C6.40713 5.38009 12.3318 12.6416 12.6289 13.0376C12.8764 13.3677 12.7774 13.6813 12.3648 13.9123C12.1338 14.0444 11.6552 14.1764 11.4241 14.1764C11.1601 14.1764 10.8465 14.0444 10.632 13.8298C10.4835 13.6813 9.83983 12.7406 8.38753 10.4796C7.28181 8.74678 6.34112 7.31099 6.32461 7.29448C6.2586 7.26148 6.2586 7.26148 8.27201 10.8592C9.54277 13.1202 9.95535 13.9288 9.95535 14.0278C9.95535 14.2424 9.88934 14.3579 9.62528 14.655C9.17969 15.1501 8.98165 15.7112 8.83312 16.8829C8.66809 18.1867 8.2225 19.1109 6.95174 20.6787C6.20909 21.6029 6.09357 21.7679 5.91203 22.1475C5.68098 22.6096 5.61497 22.8736 5.58196 23.4678C5.54895 24.0949 5.61497 24.491 5.7965 25.0851C5.96154 25.6132 6.14308 25.9598 6.58867 26.6364C6.96824 27.2305 7.19929 27.6761 7.19929 27.8412C7.19929 27.9732 7.2323 27.9732 7.82642 27.8412C9.24571 27.5111 10.4174 26.95 11.0611 26.2568C11.4572 25.8277 11.5562 25.5967 11.5562 25.0026C11.5562 24.623 11.5397 24.5405 11.4407 24.3094C11.2756 23.9464 10.9621 23.6493 10.2854 23.1872C9.39424 22.5766 9.01466 22.0815 8.91564 21.4214C8.83312 20.8602 8.93214 20.4807 9.42724 19.4409C9.93885 18.3682 10.0709 17.9226 10.1534 16.8334C10.2029 16.1403 10.2854 15.8597 10.4835 15.6452C10.698 15.4141 10.8795 15.3316 11.3911 15.2656C12.2328 15.1501 12.7774 14.9355 13.2065 14.523C13.5861 14.1764 13.7511 13.8298 13.7676 13.3182L13.7841 12.9386L13.5696 12.7076C12.7939 11.8164 2.05024 0 2.00073 0C1.98423 0 2.24828 0.313564 2.56185 0.709644ZM7.62838 24.1774C7.80991 23.8638 7.71089 23.4678 7.41383 23.2697C7.13328 23.0882 6.70419 23.1707 6.70419 23.4183C6.70419 23.4843 6.7372 23.5503 6.83622 23.5833C6.98475 23.6658 7.00125 23.7483 6.88573 23.9299C6.7702 24.1114 6.7702 24.2764 6.91873 24.392C7.14978 24.5735 7.46334 24.4745 7.62838 24.1774Z" fill="#FF007A"/>
<path fill-rule="evenodd" clip-rule="evenodd" d="M14.312 15.4966C13.916 15.6122 13.5364 16.0413 13.4209 16.4703C13.3548 16.7344 13.3878 17.213 13.5034 17.3615C13.6849 17.5926 13.8499 17.6586 14.312 17.6586C15.2197 17.6586 15.9954 17.2625 16.0779 16.7839C16.1604 16.3878 15.8138 15.8432 15.3352 15.5957C15.0877 15.4636 14.5761 15.4141 14.312 15.4966ZM15.3682 16.3218C15.5003 16.1238 15.4508 15.9092 15.2032 15.7607C14.7576 15.4801 14.081 15.7112 14.081 16.1403C14.081 16.3548 14.4276 16.5859 14.7576 16.5859C14.9722 16.5859 15.2692 16.4538 15.3682 16.3218Z" fill="#FF007A"/>
</svg>
