<svg width="95" height="31" viewBox="0 0 95 31" fill="none" xmlns="http://www.w3.org/2000/svg">
<path d="M41.3827 30H34L38.6177 0H46L41.3827 30Z" fill="white"/>
<path d="M69 1.27759C67.4877 0.670408 65.089 0 62.123 0C54.5512 0 49.2192 4.08609 49.1865 9.92798C49.1236 14.2381 53.0041 16.6321 55.9063 18.0692C58.8727 19.5377 59.8811 20.4962 59.8811 21.8052C59.8509 23.8156 57.4841 24.7423 55.2766 24.7423C52.2154 24.7423 50.5752 24.2645 48.0826 23.146L47.0729 22.6666L46 29.4029C47.7983 30.232 51.1114 30.9678 54.5512 31C62.5963 31 67.834 26.9771 67.896 20.7517C67.9266 17.3356 65.8776 14.718 61.4601 12.5791C58.7784 11.206 57.1361 10.2802 57.1361 8.87527C57.1675 7.5981 58.5251 6.28995 61.5523 6.28995C64.045 6.22588 65.8764 6.83222 67.2638 7.43898L67.9573 7.75764L69 1.27759V1.27759V1.27759Z" fill="white"/>
<path fill-rule="evenodd" clip-rule="evenodd" d="M82.6691 0H88.7048L95 30H87.775C87.775 30 87.068 26.553 86.8439 25.4998H76.8253C76.5356 26.2972 75.1876 30 75.1876 30H67L78.5906 2.48915C79.3937 0.542115 80.8078 0 82.6691 0ZM82.1882 10.9785C82.1882 10.9785 79.7154 17.6489 79.0728 19.3723H85.5587C85.2378 17.8724 83.7601 10.6913 83.7601 10.6913L83.2148 8.10627C82.9852 8.77193 82.6531 9.6871 82.4291 10.3044C82.2772 10.7228 82.1751 11.0043 82.1882 10.9785Z" fill="white"/>
<path d="M26.9037 0L19.4053 20.4788L18.5859 16.3255C17.1996 11.5331 12.8518 6.3262 8 3.73721L14.8683 30H22.965L35 0H26.9037V0V0Z" fill="white"/>
<path d="M12.051 0H0.122038L0 0.631824C9.3053 3.22677 15.468 9.48178 18 17L15.4068 2.62855C14.9799 0.631382 13.6679 0.0658795 12.051 0V0Z" fill="#FAA61A"/>
</svg>
