<svg width="19" height="21" viewBox="0 0 19 21" fill="none" xmlns="http://www.w3.org/2000/svg">
<path fill-rule="evenodd" clip-rule="evenodd" d="M4.22218 2.09989C4.22218 0.9401 5.16744 0 6.33336 0H16.8888C18.0547 0 19 0.9401 19 2.09989V14.7C19 15.8598 18.0547 16.8 16.8888 16.8H14.7778V18.9001C14.7778 20.0599 13.8326 21 12.6666 21H2.11118C0.945255 21 0 20.0599 0 18.9001V6.30004C0 5.14024 0.945255 4.19996 2.11118 4.19996H4.22218V2.09989ZM6.33336 2.09989H16.8888V14.7H6.33336V2.09989ZM2.11118 6.30004H4.22218L4.22209 14.7C4.22209 15.8598 5.16735 16.8 6.33327 16.8H12.6666V18.9001H2.11118V6.30004Z" fill="black"/>
</svg>
