<svg width="213" height="70" viewBox="0 0 213 70" xmlns="http://www.w3.org/2000/svg">
    <g fill-rule="nonzero" fill="none">
        <path d="M195.197 1H17.812c-.646 0-1.285 0-1.93.004-.54.003-1.075.013-1.62.021a24.146 24.146 0 0 0-3.534.3 12.06 12.06 0 0 0-3.352 1.067 11.344 11.344 0 0 0-2.854 2.003 10.665 10.665 0 0 0-2.077 2.756 10.943 10.943 0 0 0-1.102 3.236 21.317 21.317 0 0 0-.316 3.403c-.017.521-.018 1.044-.027 1.566V54.65c.009.528.01 1.039.027 1.567.014 1.14.12 2.278.316 3.403a10.92 10.92 0 0 0 1.102 3.237 10.58 10.58 0 0 0 2.077 2.745c.834.81 1.798 1.487 2.854 2.003 1.056.518 2.185.88 3.352 1.073 1.169.185 2.35.285 3.534.3.545.012 1.08.019 1.62.019.645.003 1.284.003 1.93.003h177.385c.634 0 1.278 0 1.912-.003.537 0 1.088-.007 1.625-.019a24.264 24.264 0 0 0 3.527-.3 12.311 12.311 0 0 0 3.364-1.073 11.06 11.06 0 0 0 2.852-2.003c.84-.804 1.543-1.73 2.083-2.745.533-1.019.901-2.11 1.092-3.237a22.16 22.16 0 0 0 .327-3.403c.007-.528.007-1.04.007-1.567.014-.618.014-1.232.014-1.86V17.212c0-.623 0-1.24-.014-1.856 0-.522 0-1.045-.007-1.566a22.162 22.162 0 0 0-.327-3.403 10.968 10.968 0 0 0-1.092-3.236 11.206 11.206 0 0 0-4.935-4.76 12.246 12.246 0 0 0-3.364-1.066 23.834 23.834 0 0 0-3.527-.3c-.537-.008-1.088-.018-1.625-.022C196.475 1 195.83 1 195.197 1z" stroke="#546E7A" stroke-width="2"/>
        <path d="M75.59 47.867h-8.347l-2.004 5.96h-3.535l7.905-22.052h3.673l7.905 22.052h-3.595l-2.003-5.96zm-7.482-2.75h6.615l-3.261-9.674h-.091l-3.263 9.673zm30.153.672c0 4.996-2.656 8.206-6.663 8.206a5.404 5.404 0 0 1-5.023-2.812H86.5v7.963h-3.277V37.75h3.172v2.674h.06a5.654 5.654 0 0 1 5.083-2.843c4.052 0 6.723 3.226 6.723 8.208zm-3.369 0c0-3.255-1.67-5.395-4.218-5.395-2.504 0-4.188 2.185-4.188 5.395 0 3.24 1.684 5.41 4.188 5.41 2.548 0 4.218-2.125 4.218-5.41zm20.94 0c0 4.996-2.656 8.206-6.663 8.206a5.404 5.404 0 0 1-5.023-2.812h-.076v7.963h-3.277V37.75h3.172v2.674h.06a5.654 5.654 0 0 1 5.084-2.843c4.052 0 6.723 3.226 6.723 8.208zm-3.369 0c0-3.255-1.67-5.395-4.219-5.395-2.503 0-4.187 2.185-4.187 5.395 0 3.24 1.684 5.41 4.187 5.41 2.549 0 4.22-2.125 4.22-5.41zm14.98 1.894c.243 2.187 2.352 3.623 5.235 3.623 2.762 0 4.749-1.436 4.749-3.408 0-1.712-1.198-2.737-4.036-3.439l-2.838-.688c-4.02-.978-5.887-2.872-5.887-5.945 0-3.805 3.292-6.418 7.965-6.418 4.629 0 7.8 2.613 7.908 6.418h-3.308c-.198-2.2-2.005-3.53-4.644-3.53-2.64 0-4.446 1.345-4.446 3.3 0 1.56 1.153 2.477 3.975 3.18l2.413.596c4.492 1.07 6.357 2.888 6.357 6.113 0 4.126-3.261 6.71-8.451 6.71-4.856 0-8.134-2.524-8.346-6.512h3.354zm20.519-13.738v3.805h3.036v2.613h-3.036v8.863c0 1.377.608 2.019 1.942 2.019.36-.006.72-.032 1.078-.076v2.597c-.6.113-1.21.164-1.82.153-3.232 0-4.493-1.223-4.493-4.34v-9.216h-2.32V37.75h2.32v-3.805h3.293zm4.792 11.844c0-5.058 2.958-8.237 7.571-8.237 4.629 0 7.574 3.179 7.574 8.237 0 5.073-2.93 8.238-7.574 8.238-4.642 0-7.571-3.165-7.571-8.238zm11.806 0c0-3.47-1.58-5.518-4.235-5.518-2.655 0-4.234 2.064-4.234 5.518 0 3.484 1.58 5.517 4.234 5.517 2.656 0 4.235-2.033 4.235-5.517zm6.04-8.04h3.126v2.737h.075a3.812 3.812 0 0 1 3.84-2.905 5.02 5.02 0 0 1 1.123.123v3.087a4.55 4.55 0 0 0-1.472-.2 3.29 3.29 0 0 0-2.553 1.06 3.34 3.34 0 0 0-.862 2.64v9.536H170.6V37.75zm23.272 11.356c-.44 2.919-3.263 4.922-6.874 4.922-4.644 0-7.526-3.134-7.526-8.161 0-5.043 2.898-8.314 7.389-8.314 4.416 0 7.194 3.056 7.194 7.93v1.131H182.78v.2a4.205 4.205 0 0 0 1.126 3.252 4.143 4.143 0 0 0 3.168 1.301 3.61 3.61 0 0 0 3.687-2.261h3.111zm-11.077-4.798h7.981a3.882 3.882 0 0 0-1.072-2.902 3.826 3.826 0 0 0-2.843-1.179 4.027 4.027 0 0 0-2.877 1.187 4.085 4.085 0 0 0-1.189 2.894zM67.698 15.177a4.637 4.637 0 0 1 3.712 1.452 4.709 4.709 0 0 1 1.238 3.813c0 3.385-1.816 5.33-4.95 5.33h-3.8V15.178h3.8zm-2.166 9.097h1.983a3.296 3.296 0 0 0 2.636-1.074c.673-.74.98-1.744.834-2.737a3.356 3.356 0 0 0-.848-2.718 3.305 3.305 0 0 0-2.622-1.071h-1.983v7.6zm8.962-2.503a3.797 3.797 0 0 1 1.761-3.58 3.739 3.739 0 0 1 3.967 0 3.797 3.797 0 0 1 1.761 3.58 3.797 3.797 0 0 1-1.759 3.585 3.74 3.74 0 0 1-3.97 0 3.797 3.797 0 0 1-1.76-3.585zm5.877 0c0-1.733-.773-2.747-2.13-2.747-1.362 0-2.128 1.014-2.128 2.747 0 1.747.766 2.753 2.128 2.753 1.357 0 2.13-1.013 2.13-2.753zm11.567 4.001h-1.626l-1.641-5.889h-.124l-1.634 5.89h-1.61l-2.189-7.997h1.59l1.422 6.102h.117l1.633-6.102h1.503l1.632 6.102h.124l1.416-6.102h1.567l-2.18 7.996zm4.02-7.996h1.509v1.27h.117a2.375 2.375 0 0 1 2.37-1.424c.782-.06 1.549.243 2.083.821.535.579.78 1.371.664 2.153v5.176h-1.567v-4.78c0-1.285-.554-1.924-1.713-1.924a1.815 1.815 0 0 0-1.41.574c-.365.39-.542.92-.486 1.452v4.678h-1.567v-7.996zm9.24-3.121h1.567v11.117h-1.567V14.655zm3.745 7.116a3.797 3.797 0 0 1 1.762-3.58 3.74 3.74 0 0 1 3.967 0 3.797 3.797 0 0 1 1.761 3.58 3.798 3.798 0 0 1-1.76 3.585 3.74 3.74 0 0 1-3.97 0 3.798 3.798 0 0 1-1.76-3.585zm5.877 0c0-1.733-.773-2.747-2.13-2.747-1.362 0-2.128 1.014-2.128 2.747 0 1.747.766 2.753 2.128 2.753 1.357 0 2.13-1.013 2.13-2.753zm3.263 1.74c0-1.44 1.064-2.27 2.953-2.387l2.15-.125v-.69c0-.845-.554-1.322-1.625-1.322-.875 0-1.48.324-1.655.89h-1.517c.16-1.374 1.443-2.255 3.244-2.255 1.99 0 3.114.998 3.114 2.687v5.463h-1.509V24.65h-.124a2.666 2.666 0 0 1-2.385 1.255 2.388 2.388 0 0 1-1.85-.605 2.423 2.423 0 0 1-.796-1.788zm5.104-.683v-.669l-1.94.125c-1.093.074-1.589.448-1.589 1.153 0 .72.62 1.139 1.473 1.139a1.863 1.863 0 0 0 1.396-.435 1.89 1.89 0 0 0 .66-1.313zm3.619-1.057c0-2.527 1.29-4.128 3.296-4.128a2.613 2.613 0 0 1 2.435 1.403h.117v-4.391h1.567v11.117h-1.502V24.51h-.124a2.752 2.752 0 0 1-2.493 1.395c-2.02 0-3.296-1.6-3.296-4.133zm1.619 0c0 1.696.794 2.716 2.121 2.716 1.32 0 2.137-1.035 2.137-2.71 0-1.666-.825-2.716-2.137-2.716-1.319 0-2.121 1.028-2.121 2.71zm12.279 0a3.797 3.797 0 0 1 1.76-3.58 3.739 3.739 0 0 1 3.968 0 3.797 3.797 0 0 1 1.76 3.58 3.797 3.797 0 0 1-1.758 3.585 3.74 3.74 0 0 1-3.971 0 3.797 3.797 0 0 1-1.76-3.585zm5.877 0c0-1.733-.773-2.747-2.13-2.747-1.362 0-2.128 1.014-2.128 2.747 0 1.747.766 2.753 2.128 2.753 1.357 0 2.13-1.013 2.13-2.753zm3.714-3.995h1.508v1.27h.118a2.375 2.375 0 0 1 2.369-1.424c.783-.06 1.55.243 2.084.821.535.579.78 1.371.664 2.153v5.176h-1.567v-4.78c0-1.285-.554-1.924-1.713-1.924a1.815 1.815 0 0 0-1.41.574c-.365.39-.542.92-.486 1.452v4.678h-1.567v-7.996zm15.597-1.99v2.027h1.72v1.329h-1.72v4.112c0 .837.343 1.204 1.123 1.204.2 0 .4-.013.598-.036v1.314c-.282.05-.567.078-.853.08-1.742 0-2.436-.617-2.436-2.158v-4.516h-1.26v-1.33h1.26v-2.027h1.568zm3.861-1.131h1.553v4.406h.124a2.44 2.44 0 0 1 2.421-1.432 2.606 2.606 0 0 1 2.064.843c.528.576.774 1.36.67 2.138v5.162h-1.568V21c0-1.277-.59-1.924-1.698-1.924a1.847 1.847 0 0 0-1.467.545c-.386.391-.58.934-.532 1.482v4.67h-1.567V14.655zm15.97 8.958a3.224 3.224 0 0 1-3.441 2.314 3.595 3.595 0 0 1-2.783-1.209 3.65 3.65 0 0 1-.885-2.919 3.706 3.706 0 0 1 .884-2.93 3.65 3.65 0 0 1 2.777-1.247c2.21 0 3.542 1.52 3.542 4.03v.552h-5.607v.088c-.05.593.152 1.18.555 1.616.402.436.969.681 1.56.675a1.9 1.9 0 0 0 1.889-.97h1.508zm-5.513-2.577h4.01a1.938 1.938 0 0 0-.521-1.471 1.909 1.909 0 0 0-1.433-.6 2.023 2.023 0 0 0-1.461.599c-.387.39-.602.921-.595 1.472zM45.076 34.992a9.152 9.152 0 0 1 4.321-7.668 9.271 9.271 0 0 0-7.318-3.984c-3.08-.326-6.064 1.855-7.633 1.855-1.6 0-4.016-1.823-6.617-1.769a9.738 9.738 0 0 0-8.202 5.037c-3.546 6.184-.9 15.271 2.496 20.27 1.7 2.447 3.686 5.18 6.285 5.084 2.544-.106 3.493-1.633 6.563-1.633 3.042 0 3.933 1.633 6.585 1.571 2.73-.044 4.449-2.458 6.089-4.929a20.302 20.302 0 0 0 2.784-5.71c-3.242-1.381-5.35-4.58-5.353-8.124zm-5.009-14.94a9.04 9.04 0 0 0 2.044-6.445 9.07 9.07 0 0 0-5.882 3.064 8.6 8.6 0 0 0-2.097 6.208 7.496 7.496 0 0 0 5.935-2.826z" fill="#546E7A"/>
    </g>
</svg>
