<svg width="162" height="54" viewBox="0 0 162 54" xmlns="http://www.w3.org/2000/svg">
    <g fill-rule="nonzero" fill="none">
        <path d="M148.259 1H13.749c-.49 0-.975 0-1.464.003-.41.002-.816.01-1.229.016a18.16 18.16 0 0 0-2.68.23 9.09 9.09 0 0 0-2.54.815c-.8.398-1.53.915-2.165 1.532a8.15 8.15 0 0 0-1.575 2.108 8.416 8.416 0 0 0-.836 2.474c-.149.86-.23 1.73-.24 2.603-.012.398-.013.798-.02 1.197v30.048c.007.404.008.795.02 1.199.01.872.091 1.742.24 2.602.147.862.429 1.697.836 2.476A8.085 8.085 0 0 0 3.67 50.4a8.384 8.384 0 0 0 2.164 1.533c.8.395 1.657.672 2.542.82a18.49 18.49 0 0 0 2.68.23c.412.008.819.013 1.228.013.489.003.973.003 1.464.003h134.51c.48 0 .968 0 1.449-.003.407 0 .825-.005 1.233-.014.896-.01 1.79-.087 2.674-.23a9.28 9.28 0 0 0 2.551-.82c.8-.394 1.53-.912 2.163-1.532a8.33 8.33 0 0 0 1.58-2.098c.403-.78.682-1.615.827-2.476.15-.86.232-1.73.248-2.602.006-.404.006-.795.006-1.199.01-.472.01-.942.01-1.422V13.397c0-.476 0-.948-.01-1.42 0-.398 0-.798-.006-1.196-.016-.873-.099-1.743-.248-2.603a8.436 8.436 0 0 0-.828-2.474 8.53 8.53 0 0 0-3.742-3.64 9.23 9.23 0 0 0-2.551-.815 17.925 17.925 0 0 0-2.674-.23c-.408-.006-.826-.014-1.233-.016-.48-.003-.969-.003-1.45-.003z" stroke="#FFF" stroke-width="2"/>
        <path d="M57.56 36.84h-6.328l-1.52 4.557h-2.68l5.994-16.863h2.785l5.995 16.863h-2.727l-1.518-4.558zm-5.673-2.104h5.017l-2.473-7.397h-.07l-2.474 7.397zm22.865.515c0 3.82-2.013 6.275-5.052 6.275a4.091 4.091 0 0 1-3.809-2.151h-.057v6.09h-2.485V29.103h2.405v2.045h.046a4.28 4.28 0 0 1 3.854-2.174c3.073 0 5.098 2.467 5.098 6.277zm-2.554 0c0-2.49-1.267-4.126-3.199-4.126-1.899 0-3.176 1.67-3.176 4.126 0 2.477 1.277 4.136 3.176 4.136 1.932 0 3.199-1.625 3.199-4.136zm15.878 0c0 3.82-2.014 6.275-5.052 6.275a4.091 4.091 0 0 1-3.809-2.151h-.057v6.09h-2.485V29.103h2.405v2.045h.046a4.28 4.28 0 0 1 3.854-2.174c3.073 0 5.098 2.467 5.098 6.277zm-2.554 0c0-2.49-1.267-4.126-3.2-4.126-1.898 0-3.175 1.67-3.175 4.126 0 2.477 1.277 4.136 3.176 4.136 1.932 0 3.199-1.625 3.199-4.136zm11.36 1.448c.183 1.672 1.783 2.77 3.969 2.77 2.094 0 3.6-1.098 3.6-2.606 0-1.309-.908-2.092-3.06-2.63l-2.152-.526c-3.049-.748-4.464-2.196-4.464-4.546 0-2.91 2.496-4.908 6.04-4.908 3.51 0 5.915 1.998 5.996 4.908h-2.508c-.15-1.683-1.52-2.699-3.522-2.699-2.001 0-3.371 1.028-3.371 2.524 0 1.192.875 1.894 3.015 2.43l1.83.457c3.406.818 4.82 2.208 4.82 4.674 0 3.155-2.473 5.131-6.409 5.131-3.682 0-6.168-1.93-6.329-4.98h2.544zm15.558-10.506v2.91h2.302V31.1h-2.302v6.778c0 1.053.461 1.544 1.473 1.544.273-.005.546-.025.818-.059v1.987a6.722 6.722 0 0 1-1.38.117c-2.452 0-3.407-.935-3.407-3.32v-7.047h-1.76v-1.998h1.76v-2.91h2.496zm3.634 9.058c0-3.869 2.243-6.3 5.741-6.3 3.51 0 5.743 2.431 5.743 6.3 0 3.879-2.22 6.299-5.743 6.299-3.52 0-5.74-2.42-5.74-6.3zm8.952 0c0-2.654-1.197-4.22-3.21-4.22-2.014 0-3.211 1.578-3.211 4.22 0 2.664 1.197 4.218 3.21 4.218 2.014 0 3.211-1.554 3.211-4.218zm4.58-6.148h2.37v2.092h.058c.33-1.347 1.546-2.274 2.912-2.221.286-.001.572.03.851.094v2.36a3.424 3.424 0 0 0-1.116-.152 2.485 2.485 0 0 0-1.935.81 2.568 2.568 0 0 0-.654 2.019v7.292h-2.485V29.103zm17.648 8.683c-.334 2.232-2.475 3.764-5.213 3.764-3.521 0-5.707-2.397-5.707-6.241 0-3.856 2.198-6.358 5.603-6.358 3.35 0 5.455 2.337 5.455 6.065v.865h-8.55v.152c-.08.915.232 1.821.855 2.488a3.128 3.128 0 0 0 2.402.994 2.735 2.735 0 0 0 2.795-1.729h2.36zm-8.4-3.67h6.052a2.983 2.983 0 0 0-.813-2.218 2.889 2.889 0 0 0-2.156-.902 3.04 3.04 0 0 0-2.182.908 3.137 3.137 0 0 0-.901 2.213zM51.577 11.841a3.5 3.5 0 0 1 2.815 1.11 3.62 3.62 0 0 1 .939 2.916c0 2.589-1.378 4.077-3.754 4.077h-2.882V11.84h2.882zm-1.643 6.957h1.504a2.489 2.489 0 0 0 1.998-.821c.51-.566.743-1.335.633-2.093a2.58 2.58 0 0 0-.643-2.08 2.496 2.496 0 0 0-1.988-.818h-1.504v5.812zm6.796-1.914a2.911 2.911 0 0 1 1.336-2.738 2.815 2.815 0 0 1 3.008 0 2.911 2.911 0 0 1 1.335 2.738 2.912 2.912 0 0 1-1.334 2.741 2.816 2.816 0 0 1-3.011 0 2.912 2.912 0 0 1-1.334-2.741zm4.457 0c0-1.326-.587-2.101-1.615-2.101-1.033 0-1.614.775-1.614 2.1 0 1.337.58 2.106 1.614 2.106 1.028 0 1.615-.775 1.615-2.105zm8.77 3.06h-1.232L67.48 15.44h-.094l-1.239 4.504h-1.22l-1.66-6.115h1.205l1.079 4.666h.088l1.238-4.666h1.14l1.238 4.666h.094l1.073-4.666h1.188l-1.653 6.115zm3.05-6.115h1.143v.971h.089a1.8 1.8 0 0 1 1.797-1.09 1.942 1.942 0 0 1 1.58.63 2.01 2.01 0 0 1 .504 1.645v3.959H76.93v-3.656c0-.983-.42-1.471-1.299-1.471a1.37 1.37 0 0 0-1.07.439c-.276.298-.41.703-.367 1.11v3.578h-1.189v-6.115zm7.006-2.387H81.2v8.502h-1.188v-8.502zm2.84 5.442a2.912 2.912 0 0 1 1.335-2.738 2.815 2.815 0 0 1 3.009 0 2.912 2.912 0 0 1 1.335 2.738 2.912 2.912 0 0 1-1.334 2.741 2.816 2.816 0 0 1-3.011 0 2.912 2.912 0 0 1-1.334-2.741zm4.456 0c0-1.326-.586-2.101-1.615-2.101-1.033 0-1.614.775-1.614 2.1 0 1.337.581 2.106 1.614 2.106 1.03 0 1.615-.775 1.615-2.105zm2.474 1.33c0-1.1.807-1.735 2.24-1.825l1.63-.096v-.527c0-.646-.42-1.01-1.232-1.01-.664 0-1.123.246-1.255.679h-1.15c.12-1.05 1.094-1.724 2.46-1.724 1.509 0 2.36.763 2.36 2.055v4.178h-1.144v-.86h-.094a2.017 2.017 0 0 1-1.808.96 1.8 1.8 0 0 1-1.403-.462 1.86 1.86 0 0 1-.604-1.368zm3.87-.522v-.511l-1.47.095c-.83.056-1.205.343-1.205.882 0 .55.47.87 1.116.87.383.04.765-.08 1.059-.332a1.45 1.45 0 0 0 .5-1.004zm2.745-.808c0-1.933.978-3.157 2.5-3.157a1.979 1.979 0 0 1 1.845 1.073h.09v-3.358h1.187v8.502h-1.138v-.966h-.094a2.083 2.083 0 0 1-1.89 1.066c-1.532 0-2.5-1.224-2.5-3.16zm1.227 0c0 1.297.602 2.077 1.61 2.077 1 0 1.62-.792 1.62-2.072 0-1.275-.626-2.078-1.62-2.078-1.001 0-1.61.786-1.61 2.073zm9.312 0a2.911 2.911 0 0 1 1.335-2.738 2.815 2.815 0 0 1 3.008 0 2.911 2.911 0 0 1 1.335 2.738 2.912 2.912 0 0 1-1.334 2.741 2.816 2.816 0 0 1-3.01 0 2.912 2.912 0 0 1-1.334-2.741zm4.456 0c0-1.326-.586-2.101-1.615-2.101-1.033 0-1.614.775-1.614 2.1 0 1.337.581 2.106 1.614 2.106 1.029 0 1.615-.775 1.615-2.105zm2.817-3.055h1.143v.971h.09a1.8 1.8 0 0 1 1.796-1.09 1.942 1.942 0 0 1 1.58.63 2.01 2.01 0 0 1 .504 1.645v3.959h-1.188v-3.656c0-.983-.42-1.471-1.3-1.471a1.37 1.37 0 0 0-1.07.439c-.275.298-.41.703-.367 1.11v3.578h-1.188v-6.115zm11.827-1.523v1.55h1.304v1.017h-1.304v3.144c0 .64.26.921.851.921.152 0 .303-.01.453-.027v1.005a3.84 3.84 0 0 1-.646.061c-1.321 0-1.848-.472-1.848-1.65v-3.454h-.955v-1.016h.955v-1.55h1.19zm2.927-.864h1.178v3.37h.094a1.849 1.849 0 0 1 1.836-1.096 1.968 1.968 0 0 1 1.565.645c.4.44.587 1.04.508 1.635v3.948h-1.189v-3.65c0-.977-.448-1.472-1.287-1.472a1.394 1.394 0 0 0-1.113.417c-.293.299-.44.714-.403 1.133v3.572h-1.189v-8.502zm12.11 6.85a2.445 2.445 0 0 1-2.61 1.77 2.715 2.715 0 0 1-2.109-.925 2.807 2.807 0 0 1-.671-2.232 2.85 2.85 0 0 1 .67-2.24 2.758 2.758 0 0 1 2.106-.954c1.675 0 2.686 1.162 2.686 3.082v.421h-4.252v.068c-.038.454.115.903.42 1.236.306.334.735.52 1.184.516a1.437 1.437 0 0 0 1.432-.741h1.144zm-4.18-1.97h3.041a1.49 1.49 0 0 0-.395-1.125 1.442 1.442 0 0 0-1.087-.46 1.528 1.528 0 0 0-1.108.459 1.577 1.577 0 0 0-.45 1.126zM34.423 26.994a7.012 7.012 0 0 1 3.276-5.864 7.015 7.015 0 0 0-5.55-3.047c-2.334-.249-4.598 1.42-5.787 1.42-1.213 0-3.045-1.395-5.018-1.354-2.595.085-4.956 1.548-6.219 3.852-2.69 4.729-.683 11.678 1.893 15.5 1.288 1.872 2.795 3.963 4.765 3.888 1.929-.08 2.65-1.249 4.977-1.249 2.307 0 2.982 1.25 4.993 1.202 2.07-.034 3.374-1.88 4.617-3.769a15.58 15.58 0 0 0 2.111-4.367c-2.457-1.056-4.056-3.502-4.058-6.212zM30.624 15.57a6.952 6.952 0 0 0 1.55-4.93 6.859 6.859 0 0 0-4.46 2.344 6.612 6.612 0 0 0-1.59 4.747 5.666 5.666 0 0 0 4.5-2.161z" fill="#FFF"/>
    </g>
</svg>
