<svg width="213" height="70" viewBox="0 0 213 70" fill="none" xmlns="http://www.w3.org/2000/svg">
<path d="M195.197 1.00022H17.8122C17.1656 1.00022 16.5268 1.00022 15.8819 1.00362C15.3421 1.00702 14.8066 1.0169 14.2615 1.02521C13.0775 1.03864 11.8963 1.13907 10.7281 1.32562C9.5616 1.51622 8.4316 1.87557 7.37637 2.39151C6.32243 2.91182 5.35941 3.5879 4.52225 4.39523C3.6807 5.20029 2.97921 6.13083 2.44473 7.15107C1.90879 8.16928 1.53716 9.26039 1.34269 10.3867C1.14637 11.5116 1.04073 12.6495 1.02671 13.7901C1.01035 14.3113 1.00862 14.8343 1 15.3556V54.6497C1.00862 55.1775 1.01035 55.6889 1.02671 56.2169C1.04073 57.3575 1.14637 58.4953 1.34269 59.6201C1.53663 60.7471 1.90827 61.8388 2.44473 62.8574C2.97896 63.8744 3.68056 64.8011 4.52225 65.6017C5.35624 66.4126 6.31988 67.0892 7.37637 67.6055C8.4316 68.1228 9.56147 68.4843 10.7281 68.6778C11.8965 68.8629 13.0776 68.9634 14.2615 68.9784C14.8066 68.99 15.3421 68.9966 15.8819 68.9966C16.5268 69 17.1657 69 17.8122 69H195.197C195.831 69 196.475 69 197.109 68.9966C197.646 68.9966 198.197 68.99 198.734 68.9784C199.916 68.9642 201.095 68.8637 202.261 68.6778C203.431 68.4829 204.565 68.1215 205.625 67.6055C206.681 67.0889 207.644 66.4123 208.477 65.6017C209.317 64.798 210.02 63.8719 210.56 62.8574C211.093 61.8381 211.461 60.7464 211.652 59.6201C211.849 58.4951 211.958 57.3576 211.979 56.2169C211.986 55.6889 211.986 55.1775 211.986 54.6497C212 54.0321 212 53.4179 212 52.7902V17.2116C212 16.589 212 15.9715 211.986 15.3556C211.986 14.8343 211.986 14.3113 211.979 13.79C211.958 12.6493 211.849 11.5117 211.652 10.3866C211.46 9.26097 211.092 8.16995 210.56 7.151C209.472 5.10604 207.746 3.44146 205.625 2.39136C204.565 1.87668 203.431 1.51743 202.261 1.32546C201.095 1.1381 199.916 1.03763 198.734 1.02497C198.197 1.01668 197.646 1.00671 197.109 1.0034C196.475 1 195.831 1 195.197 1V1.00022Z" stroke="white" stroke-width="2"/>
<path fill-rule="evenodd" clip-rule="evenodd" d="M32.5037 16.1684C31.92 16.0841 31.8929 16.0555 32.1719 16.0284C32.6998 15.9442 33.9215 16.0555 34.7813 16.2511C36.7813 16.7266 38.5867 17.9557 40.5022 20.1072L41.003 20.694L41.7255 20.5811C44.8084 20.0786 47.9743 20.4698 50.6124 21.699C51.3348 22.0345 52.4736 22.704 52.6124 22.8725C52.6682 22.9282 52.7511 23.2908 52.8069 23.6549C53.0015 24.9668 52.9185 25.9448 52.5007 26.6986C52.279 27.1183 52.279 27.2297 52.4178 27.5922C52.5294 27.8721 52.8627 28.0677 53.1674 28.0677C53.8341 28.0677 54.5294 27.0055 54.8627 25.525L55.0015 24.9383L55.2504 25.2181C56.6682 26.8099 57.7783 29.017 57.9457 30.5817L58 31L57.7511 30.6389C57.3333 29.995 56.9457 29.5767 56.4178 29.2126C55.4736 28.5702 54.4721 28.3746 51.8341 28.2347C49.4464 28.0963 48.0845 27.9007 46.7511 27.4523C44.4736 26.7001 43.3077 25.7221 40.6139 22.1173C39.4193 20.5255 38.6697 19.6604 37.92 18.9337C36.2805 17.3419 34.6425 16.5039 32.5052 16.1684H32.5037Z" fill="white"/>
<path fill-rule="evenodd" clip-rule="evenodd" d="M53.2827 19.85C53.3384 18.7982 53.4768 18.1069 53.7809 17.4708C53.8923 17.222 54.0022 17 54.0308 17C54.0579 17 54.0022 17.1937 53.9194 17.4157C53.6981 18.0235 53.6695 18.8816 53.8095 19.85C54.0022 21.094 54.0865 21.2609 55.4171 22.6152C56.0267 23.2513 56.7462 24.0543 57.0246 24.3866L57.4958 24.9944L57.0246 24.5519C56.4421 23.9992 55.1115 22.9474 54.8059 22.8088C54.6133 22.6986 54.5847 22.6986 54.4462 22.8371C54.3348 22.9474 54.3077 23.1128 54.3077 23.9158C54.2806 25.1598 54.1135 25.9345 53.6981 26.7375C53.4768 27.1517 53.4482 27.0682 53.6424 26.5989C53.7809 26.2384 53.808 26.073 53.808 24.8842C53.808 22.4766 53.531 21.8971 51.8407 20.9287C51.3351 20.6394 50.8173 20.3715 50.2888 20.1257C49.8447 19.932 49.5121 19.7666 49.5407 19.7666C49.5964 19.7115 51.231 20.1808 51.8693 20.4579C52.8386 20.8452 53.0057 20.8735 53.1156 20.8452C53.1984 20.7618 53.2541 20.5413 53.2812 19.85H53.2827ZM33.7705 23.9709C32.6054 22.3664 31.8573 19.8769 32.0229 18.0235L32.0786 17.4425L32.3555 17.4991C32.8538 17.581 33.7133 17.9133 34.1302 18.1621C35.238 18.8265 35.7378 19.7383 36.2074 22.0058C36.3474 22.6703 36.5416 23.445 36.6244 23.6938C36.7628 24.1094 37.2897 25.0778 37.7322 25.6857C38.0378 26.1282 37.8436 26.3501 37.1512 26.295C36.0975 26.1833 34.6826 25.2149 33.7689 23.9709H33.7705ZM51.8693 36.0027C46.3812 33.7903 44.441 31.8819 44.441 28.646C44.441 28.1752 44.4681 27.7878 44.4681 27.7878C44.4952 27.7878 44.6893 27.9547 44.9392 28.1484C46.0486 29.0333 47.2949 29.4207 50.7599 29.9183C52.7829 30.2222 53.948 30.4442 55.0001 30.8032C58.3538 31.9102 60.434 34.1777 60.9322 37.2482C61.0707 38.1332 60.9879 39.8197 60.7666 40.7046C60.571 41.3974 60.017 42.6697 59.8786 42.6965C59.8515 42.6965 59.7958 42.5594 59.7958 42.3375C59.7401 41.1754 59.1576 40.0699 58.1882 39.2118C57.0246 38.2166 55.527 37.4687 51.8693 36.0027ZM47.9888 36.916C47.9317 36.5211 47.8385 36.1321 47.7103 35.7539L47.5718 35.3397L47.8217 35.6437C48.183 36.0578 48.4599 36.5569 48.7098 37.2482C48.9025 37.7741 48.9025 37.9395 48.9025 38.7976C48.9025 39.6275 48.8754 39.8197 48.7083 40.2904C48.4627 40.9853 48.0654 41.6181 47.5448 42.1438C46.5468 43.1673 45.2448 43.72 43.3873 43.9688C43.0547 43.9971 42.1124 44.0806 41.28 44.1357C39.2028 44.2459 37.8165 44.4679 36.5687 44.9104C36.4031 44.9655 36.236 45.0206 36.2074 44.9923C36.1532 44.9372 37.0127 44.4411 37.7051 44.1074C38.6745 43.6381 39.6724 43.3893 41.8625 43.0019C42.9433 42.8351 44.0526 42.6146 44.3296 42.5028C47.0736 41.6462 48.4313 39.5157 47.9873 36.916H47.9888Z" fill="white"/>
<path fill-rule="evenodd" clip-rule="evenodd" d="M50.2087 41.721C49.49 40.1567 49.323 38.6752 49.711 37.2735C49.7666 37.1375 49.8208 37 49.8764 37C49.932 37 50.0989 37.0828 50.2643 37.1922C50.5966 37.411 51.2883 37.7955 53.0611 38.7565C55.303 39.9645 56.5781 40.8975 57.4637 41.968C58.2381 42.9024 58.7087 43.9729 58.9312 45.2903C59.0696 46.031 58.9869 47.8157 58.7929 48.5579C58.1839 50.8896 56.7991 52.757 54.7782 53.8275C54.5925 53.9351 54.3978 54.0271 54.1963 54.1025C54.1677 54.1025 54.279 53.8275 54.4459 53.4978C55.1105 52.0976 55.1932 50.7536 54.694 49.2425C54.3903 48.311 53.7527 47.1843 52.4792 45.2903C50.956 43.0946 50.5966 42.518 50.2087 41.721ZM29.5819 50.1207C31.6298 48.4204 34.1499 47.2109 36.476 46.828C37.4729 46.6624 39.1345 46.7171 40.0472 46.964C41.5147 47.3484 42.8439 48.172 43.5356 49.1878C44.2002 50.1769 44.5054 51.0271 44.8107 52.9211C44.9204 53.6634 45.0588 54.4308 45.0873 54.5964C45.3084 55.584 45.7519 56.3529 46.3053 56.7654C47.1623 57.3967 48.6584 57.4234 50.126 56.8748C50.3756 56.792 50.5966 56.7092 50.5966 56.7373C50.6523 56.792 49.905 57.2859 49.4057 57.5328C48.7141 57.8906 48.1607 58 47.4119 58C46.0842 58 44.949 57.3139 44.0348 55.9418C43.8408 55.6668 43.4529 54.8699 43.1206 54.1291C42.1522 51.9054 41.653 51.2459 40.5193 50.5067C39.5209 49.8738 38.2488 49.7378 37.279 50.2035C36.0054 50.8083 35.6731 52.4273 36.5587 53.415C36.9196 53.8275 37.5827 54.1572 38.1376 54.2385C39.1615 54.376 40.0472 53.5806 40.0472 52.5648C40.0472 51.9054 39.7991 51.5209 39.1345 51.2193C38.2473 50.8349 37.279 51.274 37.306 52.1257C37.306 52.482 37.4714 52.7023 37.8323 52.8664C38.0533 52.9759 38.0534 52.9759 37.888 52.9492C37.085 52.7836 36.891 51.796 37.5271 51.1646C38.303 50.3958 39.9374 50.7255 40.4892 51.796C40.7118 52.2351 40.7403 53.1134 40.5464 53.6634C40.0757 54.8699 38.7465 55.5012 37.3887 55.1449C36.476 54.898 36.0881 54.6511 34.9799 53.5259C33.0433 51.549 32.2945 51.1646 29.5263 50.7536L29 50.6708L29.5819 50.1207Z" fill="white"/>
<path fill-rule="evenodd" clip-rule="evenodd" d="M14.957 5.19321C21.506 13.0508 31.5982 25.2655 32.105 25.9324C32.5264 26.4857 32.3569 27.0135 31.6547 27.4022C31.2608 27.625 30.4456 27.8463 30.0518 27.8463C29.603 27.8463 29.0687 27.625 28.7023 27.2632C28.4504 27.0135 27.3543 25.4315 24.8797 21.6291C23.7245 19.8326 22.553 18.0462 21.3655 16.2701C21.2541 16.2147 21.2541 16.2147 24.6828 22.266C26.8475 26.07 27.5497 27.4307 27.5497 27.5966C27.5497 27.9585 27.4383 28.1529 26.9879 28.6523C26.2292 29.4851 25.8918 30.4286 25.6384 32.3994C25.3575 34.5929 24.5988 36.148 22.4341 38.7841C21.1686 40.3392 20.9732 40.6173 20.6633 41.2558C20.2695 42.0333 20.158 42.4774 20.1015 43.4762C20.0451 44.5319 20.158 45.1973 20.4679 46.1976C20.7473 47.0858 21.0572 47.6689 21.8159 48.8068C22.4616 49.8057 22.8555 50.5563 22.8555 50.8329C22.8555 51.0557 22.912 51.0557 23.9241 50.8329C26.3422 50.2782 28.3374 49.3347 29.435 48.1684C30.1083 47.4461 30.2777 47.0574 30.2777 46.0586C30.2777 45.4201 30.2487 45.281 30.0793 44.8923C29.7999 44.2822 29.2656 43.7813 28.113 43.0052C26.5941 41.978 25.9483 41.1451 25.7789 40.0342C25.6384 39.0907 25.8079 38.4522 26.6506 36.7027C27.5222 34.898 27.7466 34.1488 27.8871 32.3172C27.9726 31.1509 28.113 30.6784 28.4504 30.318C28.8168 29.9292 29.1251 29.7902 29.9953 29.6795C31.4303 29.4851 32.3569 29.1233 33.0881 28.4295C33.7354 27.8463 34.0163 27.2632 34.0438 26.4034L34.0728 25.7649L33.7064 25.3762C32.3859 23.8764 14.0853 4 14.0013 4C13.9723 4 14.4227 4.52783 14.957 5.19321ZM23.5867 44.671C23.893 44.1463 23.733 43.4791 23.2203 43.1428C22.744 42.8378 22.0128 42.9768 22.0128 43.394C22.0128 43.5047 22.0693 43.6153 22.2372 43.6706C22.4906 43.8097 22.5181 43.9487 22.3212 44.2538C22.1258 44.5588 22.1258 44.8369 22.3777 45.0313C22.7715 45.3363 23.3058 45.1704 23.5867 44.671ZM34.9719 30.0683C34.2972 30.2627 33.6499 30.9834 33.453 31.7056C33.3416 32.1497 33.398 32.9556 33.5934 33.2053C33.9033 33.5941 34.1842 33.7048 34.9719 33.7048C36.5184 33.7048 37.8389 33.0379 37.9793 32.2334C38.1197 31.5665 37.529 30.6514 36.7138 30.2343C36.2924 30.013 35.4207 29.9292 34.9719 30.0683ZM36.7702 31.4559C36.9962 31.1224 36.9107 30.7621 36.4894 30.5124C35.7306 30.0399 34.5781 30.4286 34.5781 31.1509C34.5781 31.5112 35.1689 31.9 35.7306 31.9C36.097 31.9 36.6008 31.6787 36.7702 31.4559Z" fill="white"/>
<path d="M92.75 32.713V33.595C92.75 35.513 92.092 37.109 90.776 38.383C89.46 39.643 87.717 40.273 85.547 40.273C83.307 40.273 81.452 39.538 79.982 38.068C78.526 36.584 77.798 34.778 77.798 32.65C77.798 30.522 78.526 28.723 79.982 27.253C81.452 25.769 83.293 25.027 85.505 25.027C86.863 25.027 88.109 25.356 89.243 26.014C90.377 26.658 91.252 27.512 91.868 28.576L90.188 29.563C89.768 28.765 89.131 28.128 88.277 27.652C87.437 27.162 86.506 26.917 85.484 26.917C83.804 26.917 82.425 27.47 81.347 28.576C80.269 29.668 79.73 31.026 79.73 32.65C79.73 34.274 80.269 35.632 81.347 36.724C82.439 37.816 83.846 38.362 85.568 38.362C87.038 38.362 88.228 38.005 89.138 37.291C90.048 36.563 90.601 35.625 90.797 34.477H85.4V32.713H92.75ZM96.2168 35.59C96.3988 36.528 96.8258 37.256 97.4978 37.774C98.1838 38.292 99.0238 38.551 100.018 38.551C101.404 38.551 102.412 38.04 103.042 37.018L104.596 37.9C103.574 39.482 102.034 40.273 99.9758 40.273C98.3098 40.273 96.9518 39.755 95.9018 38.719C94.8658 37.669 94.3478 36.346 94.3478 34.75C94.3478 33.168 94.8588 31.852 95.8808 30.802C96.9028 29.752 98.2258 29.227 99.8498 29.227C101.39 29.227 102.643 29.773 103.609 30.865C104.589 31.943 105.079 33.245 105.079 34.771C105.079 35.037 105.058 35.31 105.016 35.59H96.2168ZM99.8498 30.949C98.8698 30.949 98.0578 31.229 97.4138 31.789C96.7698 32.335 96.3708 33.07 96.2168 33.994H103.231C103.077 33 102.685 32.244 102.055 31.726C101.425 31.208 100.69 30.949 99.8498 30.949ZM112.583 31.264H109.79V36.955C109.79 37.473 109.888 37.844 110.084 38.068C110.294 38.278 110.609 38.39 111.029 38.404C111.449 38.404 111.967 38.39 112.583 38.362V40C110.987 40.21 109.818 40.084 109.076 39.622C108.334 39.146 107.963 38.257 107.963 36.955V31.264H105.884V29.5H107.963V27.106L109.79 26.56V29.5H112.583V31.264ZM125.77 31.264H122.977V36.955C122.977 37.473 123.075 37.844 123.271 38.068C123.481 38.278 123.796 38.39 124.216 38.404C124.636 38.404 125.154 38.39 125.77 38.362V40C124.174 40.21 123.005 40.084 122.263 39.622C121.521 39.146 121.15 38.257 121.15 36.955V31.264H119.071V29.5H121.15V27.106L122.977 26.56V29.5H125.77V31.264ZM136.262 38.677C135.184 39.741 133.875 40.273 132.335 40.273C130.795 40.273 129.486 39.741 128.408 38.677C127.344 37.613 126.812 36.304 126.812 34.75C126.812 33.196 127.344 31.887 128.408 30.823C129.486 29.759 130.795 29.227 132.335 29.227C133.875 29.227 135.184 29.759 136.262 30.823C137.34 31.887 137.879 33.196 137.879 34.75C137.879 36.304 137.34 37.613 136.262 38.677ZM132.335 38.488C133.385 38.488 134.267 38.131 134.981 37.417C135.695 36.703 136.052 35.814 136.052 34.75C136.052 33.686 135.695 32.797 134.981 32.083C134.267 31.369 133.385 31.012 132.335 31.012C131.299 31.012 130.424 31.369 129.71 32.083C128.996 32.797 128.639 33.686 128.639 34.75C128.639 35.814 128.996 36.703 129.71 37.417C130.424 38.131 131.299 38.488 132.335 38.488ZM148.915 40H146.647L141.859 35.023V40H140.032V25.3H141.859V34.141L146.395 29.5H148.747L143.728 34.582L148.915 40ZM150.932 35.59C151.114 36.528 151.541 37.256 152.213 37.774C152.899 38.292 153.739 38.551 154.733 38.551C156.119 38.551 157.127 38.04 157.757 37.018L159.311 37.9C158.289 39.482 156.749 40.273 154.691 40.273C153.025 40.273 151.667 39.755 150.617 38.719C149.581 37.669 149.063 36.346 149.063 34.75C149.063 33.168 149.574 31.852 150.596 30.802C151.618 29.752 152.941 29.227 154.565 29.227C156.105 29.227 157.358 29.773 158.324 30.865C159.304 31.943 159.794 33.245 159.794 34.771C159.794 35.037 159.773 35.31 159.731 35.59H150.932ZM154.565 30.949C153.585 30.949 152.773 31.229 152.129 31.789C151.485 32.335 151.086 33.07 150.932 33.994H157.946C157.792 33 157.4 32.244 156.77 31.726C156.14 31.208 155.405 30.949 154.565 30.949ZM167.123 29.227C168.355 29.227 169.342 29.619 170.084 30.403C170.826 31.173 171.197 32.223 171.197 33.553V40H169.37V33.658C169.37 32.804 169.139 32.146 168.677 31.684C168.215 31.208 167.578 30.97 166.766 30.97C165.856 30.97 165.121 31.257 164.561 31.831C164.001 32.391 163.721 33.259 163.721 34.435V40H161.894V29.5H163.721V31.012C164.463 29.822 165.597 29.227 167.123 29.227ZM175.322 32.335C175.322 32.741 175.525 33.07 175.931 33.322C176.337 33.56 176.827 33.756 177.401 33.91C177.975 34.05 178.549 34.218 179.123 34.414C179.697 34.596 180.187 34.918 180.593 35.38C180.999 35.828 181.202 36.409 181.202 37.123C181.202 38.075 180.831 38.838 180.089 39.412C179.361 39.986 178.423 40.273 177.275 40.273C176.253 40.273 175.378 40.049 174.65 39.601C173.922 39.153 173.404 38.558 173.096 37.816L174.671 36.913C174.839 37.417 175.154 37.816 175.616 38.11C176.078 38.404 176.631 38.551 177.275 38.551C177.877 38.551 178.374 38.439 178.766 38.215C179.158 37.977 179.354 37.613 179.354 37.123C179.354 36.717 179.151 36.395 178.745 36.157C178.339 35.905 177.849 35.709 177.275 35.569C176.701 35.415 176.127 35.24 175.553 35.044C174.979 34.848 174.489 34.526 174.083 34.078C173.677 33.63 173.474 33.056 173.474 32.356C173.474 31.446 173.824 30.697 174.524 30.109C175.238 29.521 176.127 29.227 177.191 29.227C178.045 29.227 178.801 29.423 179.459 29.815C180.131 30.193 180.635 30.725 180.971 31.411L179.438 32.272C179.06 31.376 178.311 30.928 177.191 30.928C176.673 30.928 176.232 31.054 175.868 31.306C175.504 31.544 175.322 31.887 175.322 32.335Z" fill="white"/>
</svg>
